<?xml version="1.0" encoding="UTF-8"?>
<svg version="1.1" xmlns="http://www.w3.org/2000/svg" width="278" height="435">
<path d="M0 0 C91.74 0 183.48 0 278 0 C278 143.55 278 287.1 278 435 C186.26 435 94.52 435 0 435 C0 291.45 0 147.9 0 0 Z " fill="#F8F8F8" transform="translate(0,0)"/>
<path d="M0 0 C0 12.54 0 25.08 0 38 C-5.61 38.66 -11.22 39.32 -17 40 C-28.26172283 42.68745659 -38.74456548 47.55314202 -45.125 57.625 C-51.45571858 68.92748711 -52.84859141 79.23855484 -54 92 C-42.12 92 -30.24 92 -18 92 C-18 89.69 -18 87.38 -18 85 C-17.05920851 79.40005066 -14.99400222 74.55733004 -10.4296875 71.03125 C-5.04587484 68.7461591 1.31367178 69.18676681 7 70 C11.65707363 72.27048465 14.67171927 75.34343854 17 80 C17.67926737 87.743648 15.87805657 93.26808017 11.1171875 99.44140625 C7.13523967 104.00137877 2.85395243 108.06552688 -1.6875 112.0625 C-12.10108089 121.39831168 -15.86965217 130.8848541 -16.6875 144.625 C-16.8114392 147.0832643 -16.9114919 149.54008522 -17 152 C-12.71 152 -8.42 152 -4 152 C-4 156.95 -4 161.9 -4 167 C-7.96 167 -11.92 167 -16 167 C-16 176.9 -16 186.8 -16 197 C-13.03 197 -10.06 197 -7 197 C-7 202.28 -7 207.56 -7 213 C-11.46677866 213.09204581 -15.93024383 213.17160663 -20.3972168 213.21972656 C-21.9152341 213.23979203 -23.43317459 213.26705134 -24.95092773 213.30175781 C-27.13805122 213.35050393 -29.32414952 213.37301805 -31.51171875 213.390625 C-32.82615967 213.41157227 -34.14060059 213.43251953 -35.49487305 213.45410156 C-39.54746402 212.9290741 -41.13031826 211.84011452 -44 209 C-46.36715267 205.56574994 -46.67379557 201.59964826 -47.3125 197.5625 C-50.52443718 179.35465075 -59.85649477 164.52546362 -70.0625 149.4375 C-79.79847085 134.97225862 -86.24116144 122.10009908 -90 105 C-90.19980469 104.18917969 -90.39960937 103.37835938 -90.60546875 102.54296875 C-92.93117336 87.55253604 -90.44249358 73.29434325 -86 59 C-85.75894531 58.16098145 -85.51789063 57.32196289 -85.26953125 56.45751953 C-81.67455937 44.05343996 -77.27758771 36.78396388 -67 29 C-65.63512284 27.82482599 -64.27952967 26.63869939 -62.9375 25.4375 C-62.30972656 24.89996094 -61.68195313 24.36242187 -61.03515625 23.80859375 C-59.50383619 22.44774694 -58.01882178 21.03452063 -56.55859375 19.59765625 C-49.54988255 12.81338704 -42.79648054 8.97158463 -34 5 C-33.14535156 4.46632813 -32.29070312 3.93265625 -31.41015625 3.3828125 C-26.0253035 1.19926396 -20.5095014 1.15517776 -14.75 0.8125 C-12.955625 0.6897168 -12.955625 0.6897168 -11.125 0.56445312 C-2.73883929 0 -2.73883929 0 0 0 Z " fill="#0873D8" transform="translate(159,69)"/>
<path d="M0 0 C30.96036866 1.19078341 30.96036866 1.19078341 44 10 C44.78632813 10.50917969 45.57265625 11.01835938 46.3828125 11.54296875 C48.36777168 12.93244018 50.17771818 14.40404012 52 16 C52.71542969 16.62003906 53.43085938 17.24007812 54.16796875 17.87890625 C56.81037739 20.21957165 59.40544837 22.60636158 62 25 C63.27719567 26.16031926 64.55454982 27.3204641 65.83203125 28.48046875 C67.18020751 29.71557846 68.52786448 30.95125524 69.875 32.1875 C70.51767822 32.76951172 71.16035645 33.35152344 71.82250977 33.95117188 C78.75858499 40.36296114 81.85360514 46.67284845 84.5625 55.625 C84.86551025 56.61411377 85.16852051 57.60322754 85.48071289 58.62231445 C86.07100227 60.5641189 86.65609414 62.50751284 87.23535156 64.45263672 C87.83694161 66.45678441 88.47109177 68.45116032 89.1171875 70.44140625 C95.5016081 91.81401425 89.41717276 116.19201744 79.23046875 135.3359375 C76.15609286 140.87342934 72.70350954 146.09164603 69.125 151.3125 C58.80825778 166.61623212 49.41945985 181.36923389 47.25073242 200.08911133 C46.49677142 205.60575587 44.80477134 208.15412774 41 212 C37.72108075 213.63945963 34.09386466 213.12030178 30.4921875 213.09765625 C29.23125778 213.09553383 29.23125778 213.09553383 27.94485474 213.09336853 C25.25486725 213.08776237 22.56496241 213.07520886 19.875 213.0625 C18.05338662 213.05748579 16.23177193 213.05292275 14.41015625 213.04882812 C9.94007223 213.03779094 5.47005014 213.0205222 1 213 C1 207.72 1 202.44 1 197 C5.95 197 10.9 197 16 197 C16 187.1 16 177.2 16 167 C12.04 167 8.08 167 4 167 C4 162.05 4 157.1 4 152 C7.96 152 11.92 152 16 152 C15.938125 151.05125 15.87625 150.1025 15.8125 149.125 C15.85793013 141.64417265 18.11335101 135.08080029 23.26953125 129.64453125 C27.05486909 126.04717858 30.97509366 122.62999153 35.04296875 119.35546875 C44.21541739 111.77977133 51.03075471 101.97133957 52.20703125 89.87011719 C53.01566981 76.36007721 51.26524491 65.10117545 43 54 C38.38288943 49.00052003 33.26534297 45.58339768 27 43 C26.38253906 42.72414062 25.76507813 42.44828125 25.12890625 42.1640625 C16.88826645 38.91921018 9.16170401 39.01796711 0 38 C0 25.46 0 12.92 0 0 Z " fill="#FCC302" transform="translate(159,69)"/>
<path d="M0 0 C1.58663452 0.00628418 1.58663452 0.00628418 3.20532227 0.01269531 C10.53239389 0.1189257 17.21982329 0.69485131 24.125 3.3125 C25.30835938 3.73015625 25.30835938 3.73015625 26.515625 4.15625 C34.58723025 7.34096499 42.42012811 12.96113767 47.125 20.3125 C47.78518329 23.30994509 47.96197841 26.25443982 48.125 29.3125 C48.43204854 30.98420873 48.75062851 32.6545691 49.125 34.3125 C49.785 34.3125 50.445 34.3125 51.125 34.3125 C51.85290136 47.03729409 49.58865987 59.77502534 44.125 71.3125 C43.465 71.3125 42.805 71.3125 42.125 71.3125 C42.125 71.9725 42.125 72.6325 42.125 73.3125 C41.135 73.3125 40.145 73.3125 39.125 73.3125 C38.91875 74.26125 38.7125 75.21 38.5 76.1875 C37.125 79.3125 37.125 79.3125 34 80.6875 C33.05125 80.89375 32.1025 81.1 31.125 81.3125 C31.125 81.9725 31.125 82.6325 31.125 83.3125 C30.465 83.3125 29.805 83.3125 29.125 83.3125 C29.125 83.9725 29.125 84.6325 29.125 85.3125 C27.805 85.6425 26.485 85.9725 25.125 86.3125 C25.125 86.9725 25.125 87.6325 25.125 88.3125 C24.01125 89.055 24.01125 89.055 22.875 89.8125 C16.46041449 95.64394137 15.59729028 104.04742016 15.125 112.3125 C10.505 112.6425 5.885 112.9725 1.125 113.3125 C1.23897544 115.75097451 1.36570974 118.18763174 1.5 120.625 C1.5309375 121.31529297 1.561875 122.00558594 1.59375 122.71679688 C1.80624919 126.38240789 2.04433861 128.19150792 4.125 131.3125 C7.7047952 132.22649027 9.58974216 132.49091928 13.125 131.3125 C14.80523 132.99273 14.25506804 135.07025928 14.2578125 137.37109375 C14.25910156 138.39654297 14.26039063 139.42199219 14.26171875 140.47851562 C14.25785156 141.55810547 14.25398438 142.63769531 14.25 143.75 C14.25386719 144.82572266 14.25773437 145.90144531 14.26171875 147.00976562 C14.26042969 148.03650391 14.25914062 149.06324219 14.2578125 150.12109375 C14.25668457 151.06782959 14.25555664 152.01456543 14.25439453 152.98999023 C14.125 155.3125 14.125 155.3125 13.125 157.3125 C8.835 157.3125 4.545 157.3125 0.125 157.3125 C-0.37 163.7475 -0.37 163.7475 -0.875 170.3125 C-1.865 169.9825 -2.855 169.6525 -3.875 169.3125 C-4.535 165.6825 -5.195 162.0525 -5.875 158.3125 C-8.845 158.3125 -11.815 158.3125 -14.875 158.3125 C-15.98237929 148.6229312 -15.97139597 139.04849347 -15.875 129.3125 C-11.915 129.3125 -7.955 129.3125 -3.875 129.3125 C-3.875 124.3625 -3.875 119.4125 -3.875 114.3125 C-8.165 114.3125 -12.455 114.3125 -16.875 114.3125 C-17.36887678 99.56936367 -16.360824 88.68918575 -5.875 77.3125 C-2.51033874 73.98207349 0.95610417 70.7655194 4.48901367 67.61450195 C11.16322706 61.61566975 15.96693948 55.65882772 16.5 46.3125 C16.37757742 42.04403255 14.92733449 39.56926711 12.125 36.3125 C6.16560594 31.83761449 -0.80487863 32.51137514 -7.875 33.3125 C-11.56301594 34.6636846 -13.17869738 36.8164281 -14.84765625 40.40234375 C-16.56317579 45.07015273 -17.15930438 49.30263064 -17.875 54.3125 C-29.755 54.3125 -41.635 54.3125 -53.875 54.3125 C-53.875 38.31645796 -51.65645217 24.93206182 -40.63671875 12.87109375 C-29.07613959 2.64344168 -14.92931078 -0.08071823 0 0 Z " fill="#FBFCFB" transform="translate(158.875,106.6875)"/>
<path d="M0 0 C27.72 0 55.44 0 84 0 C84 4.29 84 8.58 84 13 C83.03739258 13.20044922 82.07478516 13.40089844 81.08300781 13.60742188 C76.47138743 14.56866746 71.8606175 15.53395697 67.25 16.5 C66.40497925 16.67685333 65.5599585 16.85370667 64.68933105 17.03591919 C55.04982844 19.05579658 45.41998884 21.10982208 35.8125 23.27734375 C35.00190125 23.45983673 34.19130249 23.64232971 33.35614014 23.83035278 C29.48706384 24.70267655 25.61986142 25.58235701 21.75488281 26.47265625 C20.34183757 26.79314821 18.92875362 27.11346958 17.515625 27.43359375 C16.30165039 27.71259521 15.08767578 27.99159668 13.83691406 28.27905273 C9.2690096 29.1373514 4.62477485 29.53752252 0 30 C0 20.1 0 10.2 0 0 Z " fill="#21262C" transform="translate(117,290)"/>
<path d="M0 0 C1.37693876 11.79747531 1.37693876 11.79747531 -1.86328125 16.98046875 C-4.14627674 19.45028875 -6.5327208 21.71654127 -9 24 C-9.44617676 24.85271484 -9.89235352 25.70542969 -10.35205078 26.58398438 C-14.7657027 30.61104499 -19.96129667 29.8134777 -25.7265625 29.83984375 C-26.98455658 29.85648575 -28.24255066 29.87312775 -29.53866577 29.89027405 C-32.20424628 29.91560599 -34.86727903 29.92947956 -37.53271484 29.92651367 C-40.92370737 29.9260078 -44.30940902 29.99399921 -47.69915199 30.08037472 C-50.95808076 30.14990516 -54.21699394 30.14643426 -57.4765625 30.15234375 C-58.68108063 30.18827133 -59.88559875 30.22419891 -61.12661743 30.26121521 C-68.17060229 30.16678809 -71.72899471 29.04210397 -76.84521484 24.05297852 C-81 19.4424247 -81 19.4424247 -81 17 C-79.86385254 16.75878418 -78.72770508 16.51756836 -77.55712891 16.26904297 C-47.77667364 9.94153381 -47.77667364 9.94153381 -18.08984375 3.19140625 C-16.80182861 2.89000732 -16.80182861 2.89000732 -15.48779297 2.58251953 C-13.81423801 2.19065475 -12.14139376 1.79574349 -10.46923828 1.39794922 C-9.67630371 1.21377441 -8.88336914 1.02959961 -8.06640625 0.83984375 C-7.37619385 0.67734131 -6.68598145 0.51483887 -5.97485352 0.34741211 C-4 0 -4 0 0 0 Z " fill="#22272D" transform="translate(201,334)"/>
<path d="M0 0 C0 5.61 0 11.22 0 17 C-1.78019531 17.36351562 -3.56039062 17.72703125 -5.39453125 18.1015625 C-28.32210437 22.80238631 -51.16896202 27.81805608 -73.95385742 33.171875 C-74.98099854 33.41164063 -76.00813965 33.65140625 -77.06640625 33.8984375 C-78.4268103 34.21820557 -78.4268103 34.21820557 -79.81469727 34.54443359 C-82 35 -82 35 -84 35 C-84 29.39 -84 23.78 -84 18 C-76.13097266 15.76477795 -68.27126436 13.96585382 -60.25 12.375 C-51.33898389 10.57838607 -42.4625783 8.67356042 -33.609375 6.609375 C-32.28924408 6.301707 -32.28924408 6.301707 -30.94244385 5.98782349 C-26.57169825 4.96645969 -22.20333477 3.93568467 -17.83691406 2.89599609 C-16.22462752 2.51652448 -14.61232364 2.13712648 -13 1.7578125 C-12.26473083 1.5799823 -11.52946167 1.4021521 -10.77191162 1.21893311 C-6.99510928 0.33475593 -3.93423722 0 0 0 Z " fill="#24282E" transform="translate(201,310)"/>
<path d="M0 0 C0 12.54 0 25.08 0 38 C-5.61 38.66 -11.22 39.32 -17 40 C-23.40613781 41.52873743 -28.45777145 43.54095205 -34.08984375 46.9140625 C-36 48 -36 48 -39 49 C-39.33 48.01 -39.66 47.02 -40 46 C-31.07334254 36.81829519 -16.12357313 35.73193902 -4 34 C-3.67 26.08 -3.34 18.16 -3 10 C-31.80730576 14.43189319 -51.66764146 23.42813511 -70 47 C-71.49757804 49.34998861 -72.65815425 51.66128336 -73.875 54.1875 C-74.44992188 55.35667969 -75.02484375 56.52585938 -75.6171875 57.73046875 C-76.8097759 60.55023286 -77.55733058 62.98644279 -78 66 C-78.66 66 -79.32 66 -80 66 C-80.39634801 46.09452202 -80.39634801 46.09452202 -77 41 C-76.34 41 -75.68 41 -75 41 C-74.60748047 40.11828125 -74.60748047 40.11828125 -74.20703125 39.21875 C-70.89231721 33.12568342 -64.33350514 27.95132008 -58.4375 24.5 C-55.89818348 23.06707344 -55.89818348 23.06707344 -53.8125 20.8125 C-53.214375 20.214375 -52.61625 19.61625 -52 19 C-51.34 19 -50.68 19 -50 19 C-50 18.34 -50 17.68 -50 17 C-47.2072858 13.89698423 -44.76113783 11.75519765 -41 10 C-40.55591797 9.54069092 -40.11183594 9.08138184 -39.65429688 8.6081543 C-32.7087236 1.85631086 -23.7021979 1.11659125 -14.5 0.6875 C-12.73269531 0.57825195 -12.73269531 0.57825195 -10.9296875 0.46679688 C-3.19419643 0 -3.19419643 0 0 0 Z " fill="#0AA6F3" transform="translate(159,69)"/>
<path d="M0 0 C30.96036866 1.19078341 30.96036866 1.19078341 44 10 C44.78632813 10.50917969 45.57265625 11.01835938 46.3828125 11.54296875 C48.36777168 12.93244018 50.17771818 14.40404012 52 16 C52.71542969 16.62003906 53.43085938 17.24007812 54.16796875 17.87890625 C56.81037739 20.21957165 59.40544837 22.60636158 62 25 C63.27719567 26.16031926 64.55454982 27.3204641 65.83203125 28.48046875 C67.18020751 29.71557846 68.52786448 30.95125524 69.875 32.1875 C70.51767822 32.76951172 71.16035645 33.35152344 71.82250977 33.95117188 C78.75858499 40.36296114 81.85360514 46.67284845 84.5625 55.625 C84.86551025 56.61411377 85.16852051 57.60322754 85.48071289 58.62231445 C86.07100227 60.5641189 86.65609414 62.50751284 87.23535156 64.45263672 C87.83694161 66.45678441 88.47109177 68.45116032 89.1171875 70.44140625 C94.94339101 89.9453161 90.15651727 111.9027273 82 130 C80.3125 132.453125 80.3125 132.453125 79 134 C79.43658173 131.45327327 79.92073603 129.18407582 80.9453125 126.8046875 C82.23643801 123.37125003 82.87556375 119.9116162 83.5 116.3125 C83.75572797 114.87746451 84.01223666 113.44256793 84.26953125 112.0078125 C84.39279785 111.31719727 84.51606445 110.62658203 84.64306641 109.91503906 C85.09485977 107.4910533 85.64242671 105.09200771 86.1875 102.6875 C87.23403647 97.41121197 87.1994729 92.3600298 87 87 C86.98598145 86.31276855 86.97196289 85.62553711 86.95751953 84.91748047 C86.75915033 75.43052468 86.17809675 67.65146535 82 59 C81.31453997 57.15269845 80.64840221 55.29813243 80 53.4375 C79.33774444 51.62338361 78.67116813 49.81083794 78 48 C77.68160156 47.13375 77.36320312 46.2675 77.03515625 45.375 C75.20218046 40.54217213 75.20218046 40.54217213 71.25 37.4375 C70.5075 37.293125 69.765 37.14875 69 37 C69 36.34 69 35.68 69 35 C68.443125 34.7525 67.88625 34.505 67.3125 34.25 C64.54806595 32.75571133 62.31546532 31.12772489 60 29 C59.375 26.8125 59.375 26.8125 59 25 C58.01 24.67 57.02 24.34 56 24 C55.71125 23.360625 55.4225 22.72125 55.125 22.0625 C53.58339513 19.23622441 51.98252067 19.17082423 49 18 C46.81021767 16.74792149 44.64466023 15.45288543 42.5 14.125 C40.84484375 13.10792969 40.84484375 13.10792969 39.15625 12.0703125 C36 10 36 10 33.71484375 7.78515625 C29.6582092 5.11770015 25.82067507 5.36448298 21.0625 5.3125 C19.30330771 5.2700323 17.5441856 5.22453337 15.78515625 5.17578125 C14.54983154 5.14411865 14.54983154 5.14411865 13.28955078 5.11181641 C10.47528373 4.97437406 7.75978169 4.55923089 5 4 C3.97749595 10.69860922 3.88243727 17.2315198 3.9375 24 C3.94201172 25.06089844 3.94652344 26.12179688 3.95117188 27.21484375 C3.96286157 29.80995598 3.97924724 32.40494709 4 35 C4.79857422 34.95907227 5.59714844 34.91814453 6.41992188 34.87597656 C14.35557054 34.5227334 20.65525759 36.08293918 28 39 C28 39.66 28 40.32 28 41 C28.804375 41.04125 29.60875 41.0825 30.4375 41.125 C37.84627575 42.94469931 43.72782967 47.78593407 48 54 C49.63768682 57.93044836 50.39905052 61.79335366 51 66 C48.945088 63.3399973 47.17048245 60.62623355 45.4375 57.75 C38.57544033 47.54918758 29.59755918 43.2859751 18 40 C12.06 39.34 6.12 38.68 0 38 C0 25.46 0 12.92 0 0 Z " fill="#F2D833" transform="translate(159,69)"/>
<path d="M0 0 C1.09142742 2.74490727 1.03727116 3.8908376 0.06640625 6.734375 C-3.42238197 13.73007501 -7.10154869 18.88573586 -13 24 C-13.65871094 24.60070312 -14.31742188 25.20140625 -14.99609375 25.8203125 C-19.67151163 30 -19.67151163 30 -22 30 C-22.268125 30.598125 -22.53625 31.19625 -22.8125 31.8125 C-23.99917406 33.99847854 -25.09599113 35.41332594 -27 37 C-27.66 37 -28.32 37 -29 37 C-29.02578125 37.95261719 -29.0515625 38.90523437 -29.078125 39.88671875 C-29.13484375 41.14097656 -29.1915625 42.39523438 -29.25 43.6875 C-29.31960937 45.54955078 -29.31960937 45.54955078 -29.390625 47.44921875 C-30.07895946 51.46009068 -31.08181505 53.20384824 -34 56 C-37.125 56.25 -37.125 56.25 -40 56 C-40.99 56.495 -40.99 56.495 -42 57 C-42 59.31 -42 61.62 -42 64 C-40.95199219 64.12955078 -40.95199219 64.12955078 -39.8828125 64.26171875 C-38.97273437 64.40222656 -38.06265625 64.54273438 -37.125 64.6875 C-36.22007812 64.81511719 -35.31515625 64.94273437 -34.3828125 65.07421875 C-32 66 -32 66 -30.87207031 68.16699219 C-29.23092081 73.49843083 -29.63081127 79.02726253 -29.625 84.5625 C-29.60050781 85.79419922 -29.57601562 87.02589844 -29.55078125 88.29492188 C-29.54691406 89.47763672 -29.54304688 90.66035156 -29.5390625 91.87890625 C-29.53084473 92.9572876 -29.52262695 94.03566895 -29.51416016 95.14672852 C-30.11542699 98.67788705 -31.19682071 99.83750185 -34 102 C-36.796875 102.609375 -36.796875 102.609375 -39.75 102.75 C-40.73484375 102.80671875 -41.7196875 102.8634375 -42.734375 102.921875 C-43.48203125 102.94765625 -44.2296875 102.9734375 -45 103 C-45.33 105.64 -45.66 108.28 -46 111 C-41.9981675 111.04978833 -37.99645735 111.08590164 -33.99438477 111.10986328 C-32.63562882 111.11986243 -31.27689406 111.13346624 -29.91821289 111.15087891 C-27.95468704 111.17539594 -25.99099799 111.18546962 -24.02734375 111.1953125 C-22.84906006 111.20578613 -21.67077637 111.21625977 -20.45678711 111.22705078 C-15.74061825 110.91728053 -11.42496542 110.42496542 -8 107 C-7.3732442 103.89668831 -6.98036934 100.79009476 -6.5625 97.65234375 C-6.2840625 96.33943359 -6.2840625 96.33943359 -6 95 C-5.34 94.67 -4.68 94.34 -4 94 C-2.86649466 91.98330173 -2.86649466 91.98330173 -2 90 C-3.19243596 107.07066212 -3.19243596 107.07066212 -7.52587891 111.69604492 C-11.44543396 114.77780734 -15.07463662 114.64384171 -19.8984375 114.48828125 C-21.15087753 114.47766914 -21.15087753 114.47766914 -22.42861938 114.46684265 C-25.07834973 114.43899925 -27.72591559 114.37628406 -30.375 114.3125 C-32.17835475 114.28740393 -33.98174285 114.26459305 -35.78515625 114.24414062 C-40.19092983 114.18920611 -44.59509879 114.10300712 -49 114 C-49 108.72 -49 103.44 -49 98 C-44.05 98 -39.1 98 -34 98 C-34 88.1 -34 78.2 -34 68 C-37.96 68 -41.92 68 -46 68 C-46 63.05 -46 58.1 -46 53 C-42.04 53 -38.08 53 -34 53 C-34.061875 52.05125 -34.12375 51.1025 -34.1875 50.125 C-34.14206987 42.64417265 -31.88664899 36.08080029 -26.73046875 30.64453125 C-22.94513091 27.04717858 -19.02490634 23.62999153 -14.95703125 20.35546875 C-8.2290925 14.79873791 -3.02312515 8.24755502 0 0 Z " fill="#E3A337" transform="translate(209,168)"/>
<path d="M0 0 C3 1 3 1 4.53515625 3.546875 C5.03917969 4.60390625 5.54320313 5.6609375 6.0625 6.75 C6.56910156 7.79671875 7.07570313 8.8434375 7.59765625 9.921875 C9 13 9 13 9.99609375 15.828125 C10.32738281 16.54484375 10.65867187 17.2615625 11 18 C11.99 18.33 12.98 18.66 14 19 C14 19.99 14 20.98 14 22 C14.99 22 15.98 22 17 22 C18.5703125 24.08203125 18.5703125 24.08203125 20.125 26.8125 C20.64320312 27.70582031 21.16140625 28.59914062 21.6953125 29.51953125 C23 32 23 32 24 35 C24.66 35.33 25.32 35.66 26 36 C27.02178143 37.72425617 28.04130093 39.45082593 29 41.2109375 C29.91907273 42.85521605 30.95510816 44.43266224 32 46 C32 47.32 32 48.64 32 50 C32.66 50 33.32 50 34 50 C37.24535341 58.36872859 39.95756858 66.81730332 41.453125 75.6875 C42.00903602 78.90440626 42.00903602 78.90440626 43 82 C45.47014472 83.67613187 45.47014472 83.67613187 48 84 C48 84.66 48 85.32 48 86 C49.21623047 85.75056641 49.21623047 85.75056641 50.45703125 85.49609375 C55.32357831 84.81466985 60.08435411 84.9895146 64.98632812 85.12695312 C69.77953825 85.19984648 69.77953825 85.19984648 74 83 C74.36297936 81.02252878 74.36297936 81.02252878 74.1875 78.875 C74.125625 77.59625 74.06375 76.3175 74 75 C72.88625 74.896875 71.7725 74.79375 70.625 74.6875 C69.42875 74.460625 68.2325 74.23375 67 74 C63.04260921 68.06391382 63.73941233 59.78645141 63.625 52.8125 C63.56892578 51.49862305 63.56892578 51.49862305 63.51171875 50.15820312 C63.4501394 45.64580546 63.53023574 43.63598853 66.28515625 39.90625 C69.72121425 37.49359345 71.88997538 37.59705641 76 38 C76 35.36 76 32.72 76 30 C75.37351562 29.95101562 74.74703125 29.90203125 74.1015625 29.8515625 C73.28429687 29.77679688 72.46703125 29.70203125 71.625 29.625 C70.81289062 29.55539063 70.00078125 29.48578125 69.1640625 29.4140625 C67 29 67 29 65 27 C64.80013848 24.51642668 64.721614 22.16890927 64.75 19.6875 C64.74226563 17.71330078 64.74226563 17.71330078 64.734375 15.69921875 C64.97860515 12.29795479 65.52029843 10.03573695 67 7 C68.19799449 11.14659373 67.8896192 14.99369047 67.5625 19.25 C67.51029297 19.99507812 67.45808594 20.74015625 67.40429688 21.5078125 C67.2751783 23.33894861 67.13834886 25.16953813 67 27 C71.29 27 75.58 27 80 27 C80 31.95 80 36.9 80 42 C76.04 42 72.08 42 68 42 C68 51.9 68 61.8 68 72 C70.97 72 73.94 72 77 72 C77 77.28 77 82.56 77 88 C72.53322134 88.09204581 68.06975617 88.17160663 63.6027832 88.21972656 C62.0847659 88.23979203 60.56682541 88.26705134 59.04907227 88.30175781 C56.86194878 88.35050393 54.67585048 88.37301805 52.48828125 88.390625 C51.17384033 88.41157227 49.85939941 88.43251953 48.50512695 88.45410156 C44.45253598 87.9290741 42.86968174 86.84011452 40 84 C37.63284733 80.56574994 37.32620443 76.59964826 36.6875 72.5625 C33.27475948 53.21633551 22.9110347 37.6560546 12.04467773 21.68481445 C7.35407328 14.71939236 3.42739639 7.66654456 0 0 Z " fill="#103990" transform="translate(75,194)"/>
<path d="M0 0 C7.24505868 9.05124978 7.05554354 20.92823845 6 32 C3.02480726 48.48518747 -10.07450572 60.31260737 -22.7890625 70.16015625 C-29.34192231 75.61315443 -29.9112038 84.01549454 -31 92 C-34.96 92 -38.92 92 -43 92 C-43 96.95 -43 101.9 -43 107 C-39.04 107 -35.08 107 -31 107 C-31 116.9 -31 126.8 -31 137 C-35.95 137 -40.9 137 -46 137 C-46 142.28 -46 147.56 -46 153 C-40.69747445 152.95574234 -35.39612779 152.88579988 -30.09423828 152.79248047 C-28.29225061 152.76432947 -26.49014081 152.74308578 -24.68798828 152.72900391 C-22.09083802 152.70749245 -19.49514705 152.66080243 -16.8984375 152.609375 C-16.0982016 152.60814636 -15.2979657 152.60691772 -14.47348022 152.60565186 C-9.08260231 152.46584419 -6.21776525 151.38601014 -2 148 C-2.60183749 150.02045442 -3.27306096 152.02111039 -4 154 C-7.36671878 155.68335939 -11.172966 155.14154289 -14.875 155.1328125 C-16.19540283 155.13424759 -16.19540283 155.13424759 -17.54248047 155.13571167 C-19.40527416 155.13639276 -21.26807023 155.13454343 -23.13085938 155.13037109 C-25.98833528 155.12502184 -28.845654 155.13031849 -31.703125 155.13671875 C-33.51041701 155.13605796 -35.31770893 155.13477677 -37.125 155.1328125 C-38.41253174 155.13584885 -38.41253174 155.13584885 -39.72607422 155.13894653 C-45.77008255 155.11495872 -45.77008255 155.11495872 -48 154 C-48.02690104 151.20826945 -48.04679053 148.41679652 -48.0625 145.625 C-48.07087891 144.8309375 -48.07925781 144.036875 -48.08789062 143.21875 C-48.11328125 137.2265625 -48.11328125 137.2265625 -47 135 C-42.71 135 -38.42 135 -34 135 C-34 126.75 -34 118.5 -34 110 C-35.98 110.495 -35.98 110.495 -38 111 C-42.17611041 109.9977335 -43.56955617 109.64566574 -46 106 C-46.14221065 103.39754502 -46.18802932 100.90882316 -46.125 98.3125 C-46.11597656 97.61060547 -46.10695312 96.90871094 -46.09765625 96.18554688 C-46.07413704 94.45688475 -46.03826713 92.72839855 -46 91 C-43.23547967 89.61773984 -40.9538637 89.90474613 -37.875 89.9375 C-36.77929688 89.94652344 -35.68359375 89.95554687 -34.5546875 89.96484375 C-33.71164063 89.97644531 -32.86859375 89.98804688 -32 90 C-32.04640625 89.39414063 -32.0928125 88.78828125 -32.140625 88.1640625 C-32.48088594 80.26514785 -30.91875333 73.60551882 -25.875 67.375 C-24 66 -24 66 -22 66 C-22 65.34 -22 64.68 -22 64 C-20.02 63.505 -20.02 63.505 -18 63 C-18 62.34 -18 61.68 -18 61 C-17.34 61 -16.68 61 -16 61 C-16 60.34 -16 59.68 -16 59 C-13 57 -13 57 -10 57 C-9.855625 56.38125 -9.71125 55.7625 -9.5625 55.125 C-9 53 -9 53 -8 51 C-7.01 51 -6.02 51 -5 51 C-5 50.34 -5 49.68 -5 49 C-4.34 49 -3.68 49 -3 49 C-2.54552657 47.14714678 -2.09107748 45.2942876 -1.63671875 43.44140625 C-1.21776991 41.83500731 -0.76275415 40.23751468 -0.26953125 38.65234375 C2.38980043 29.91839656 3.15351385 21.05242245 4 12 C3.34 12 2.68 12 2 12 C0.00214565 7.8794254 -0.17835515 4.54805635 0 0 Z " fill="#FDF5C7" transform="translate(206,129)"/>
<path d="M0 0 C1.72447904 0.00031742 3.44897767 0.01165954 5.17333984 0.03173828 C6.53415176 0.03598312 6.53415176 0.03598312 7.92245483 0.04031372 C10.82652857 0.05152926 13.73029646 0.07663615 16.63427734 0.10205078 C18.60041873 0.11207881 20.56656494 0.12120497 22.53271484 0.12939453 C27.35835393 0.15147306 32.18376374 0.18601213 37.00927734 0.22705078 C37.00927734 3.85705078 37.00927734 7.48705078 37.00927734 11.22705078 C31.2068812 11.27639734 25.40460653 11.3127448 19.60205078 11.33691406 C17.62709425 11.34698706 15.65215268 11.36064599 13.67724609 11.37792969 C10.84257316 11.40212117 8.00809697 11.41352069 5.17333984 11.42236328 C4.28683746 11.43268585 3.40033508 11.44300842 2.48696899 11.4536438 C0.32641783 11.45404148 -1.83365984 11.34977612 -3.99072266 11.22705078 C-5.99072266 9.22705078 -5.99072266 9.22705078 -6.24072266 5.72705078 C-5.87688401 0.6333097 -5.07986352 0.28901707 0 0 Z " fill="#0E4EB1" transform="translate(11.99072265625,131.77294921875)"/>
<path d="M0 0 C2.81640625 0.4375 2.81640625 0.4375 4.81640625 2.4375 C5.34375 5.11328125 5.34375 5.11328125 4.81640625 8.4375 C2.97127989 11.1319824 0.70186262 13.34053258 -1.62109375 15.625 C-2.91161969 16.94391425 -4.19937249 18.26554751 -5.484375 19.58984375 C-6.11682129 20.23808105 -6.74926758 20.88631836 -7.40087891 21.55419922 C-10.606447 24.94063475 -13.4522016 28.58785249 -16.31640625 32.265625 C-18.11917879 34.36257381 -19.90883969 35.88055722 -22.18359375 37.4375 C-24.49359375 35.4575 -26.80359375 33.4775 -29.18359375 31.4375 C-28.13506861 27.24339944 -27.56298469 26.49469154 -24.55859375 23.6875 C-21.85356013 21.08318572 -19.26114159 18.46878761 -16.80859375 15.625 C-16.24527344 14.97917969 -15.68195313 14.33335938 -15.1015625 13.66796875 C-13.62913006 11.95562878 -12.17719385 10.22564685 -10.734375 8.48828125 C-9.86386901 7.47085099 -8.99277796 6.453921 -8.12109375 5.4375 C-7.32574219 4.48875 -6.53039062 3.54 -5.7109375 2.5625 C-3.18359375 0.4375 -3.18359375 0.4375 0 0 Z " fill="#FCD908" transform="translate(258.18359375,38.5625)"/>
<path d="M0 0 C1.86181641 1.37011719 1.86181641 1.37011719 3.6015625 3.296875 C4.25189453 4.00336182 4.90222656 4.70984863 5.57226562 5.43774414 C6.24966797 6.20078857 6.92707031 6.96383301 7.625 7.75 C8.32560547 8.51755615 9.02621094 9.2851123 9.74804688 10.07592773 C11.16747621 11.63317677 12.58126222 13.19558906 13.98925781 14.76318359 C16.32137632 17.3575097 18.6827582 19.92353971 21.04833984 22.48730469 C23.04134279 24.64991065 25.02132122 26.82429177 27 29 C25.20953589 33.13718891 22.83902629 34.66320139 19 37 C14.49504356 32.60035423 10.14551619 28.14458223 6.078125 23.3359375 C4.38707657 21.43509735 2.66136606 19.64395716 0.859375 17.8515625 C0.30668945 17.28912842 -0.24599609 16.72669434 -0.81542969 16.1472168 C-1.92005457 15.02610259 -3.04020198 13.92002929 -4.17675781 12.83129883 C-7.12725218 9.79811961 -8.0037627 8.46234184 -7.96875 4.16015625 C-7.6490625 3.11730469 -7.329375 2.07445312 -7 1 C-4.43461417 -0.28269291 -2.84709288 -0.29406593 0 0 Z " fill="#0A93E4" transform="translate(62,39)"/>
<path d="M0 0 C3.05117037 0.37209395 3.6939032 0.94367236 5.5625 3.3125 C5.82422754 6.32546236 5.91110113 9.12730568 5.85546875 12.13671875 C5.85122391 12.99811966 5.84697906 13.85952057 5.84260559 14.74702454 C5.82581248 17.49833431 5.78815956 20.24891162 5.75 23 C5.73495396 24.8652238 5.72126541 26.73045907 5.70898438 28.59570312 C5.67590693 33.16825098 5.6241206 37.7402513 5.5625 42.3125 C2.2625 42.3125 -1.0375 42.3125 -4.4375 42.3125 C-4.48684926 36.65251954 -4.52319529 30.99266364 -4.54736328 25.33251953 C-4.55743582 23.40606506 -4.57109443 21.47962592 -4.58837891 19.55322266 C-4.61257241 16.78804748 -4.62397036 14.023074 -4.6328125 11.2578125 C-4.64313507 10.3931839 -4.65345764 9.5285553 -4.66409302 8.63772583 C-4.66449106 6.52796479 -4.56015243 4.41869282 -4.4375 2.3125 C-2.4375 0.3125 -2.4375 0.3125 0 0 Z " fill="#169FE1" transform="translate(158.4375,6.6875)"/>
<path d="M0 0 C3.94727588 -0.17942163 6.5980513 -0.09350689 10 2 C10 2.66 10 3.32 10 4 C10.7425 3.95875 11.485 3.9175 12.25 3.875 C17.32532226 4.10569647 19.57550133 6.47478078 23 10 C24.0767213 10.88312363 25.16034744 11.75788212 26.25 12.625 C27.1575 13.40875 28.065 14.1925 29 15 C29 15.66 29 16.32 29 17 C29.556875 17.226875 30.11375 17.45375 30.6875 17.6875 C33.64562023 19.3664331 35.58983583 21.58983583 38 24 C40.37537382 25.85551086 42.7791821 27.66298716 45.20703125 29.44921875 C45.79871094 29.96097656 46.39039063 30.47273438 47 31 C47 31.66 47 32.32 47 33 C47.66 33 48.32 33 49 33 C54.273488 41.47524857 57.34551412 50.01909026 58 60 C58.66 60 59.32 60 60 60 C63.2282874 72.1822166 64.42325832 82.4595128 63 95 C62.67 95.33 62.34 95.66 62 96 C61.7623695 99.09296835 61.60483681 102.17815582 61.48242188 105.27734375 C61.21409125 110.43131694 60.18744512 114.07040169 57.5 118.4375 C55.90688085 120.95694193 55.90688085 120.95694193 55.0625 123.8125 C53.74813456 127.75559633 51.92210405 131.32374274 50 135 C49.34 135 48.68 135 48 135 C49.37635219 130.64045381 51.05633246 126.5394167 52.9375 122.375 C62.36458525 100.90330597 62.02283133 78.97630094 55 57 C54.76474609 56.22253418 54.52949219 55.44506836 54.28710938 54.64404297 C51.59971436 45.79155649 49.01393192 38.33516431 42 32 C40.86632142 30.91371659 39.73504903 29.82491944 38.60546875 28.734375 C34.79843892 25.0871185 30.91083311 21.5352581 27 18 C26.05769531 17.13503906 25.11539063 16.27007812 24.14453125 15.37890625 C16.84732481 9.00903013 8.73168124 5.02073653 0 1 C0 0.67 0 0.34 0 0 Z " fill="#FEFCCB" transform="translate(189,72)"/>
<path d="M0 0 C14.19 0 28.38 0 43 0 C41.02 2.31 39.04 4.62 37 7 C36.32606201 7.78979248 35.65212402 8.57958496 34.95776367 9.39331055 C31.1111344 12.55014646 26.08467147 11.80749022 21.3125 11.8125 C19.68344727 11.81805908 19.68344727 11.81805908 18.02148438 11.82373047 C11.59642514 11.63768039 7.60774875 11.24763647 3 6.625 C0 2.6875 0 2.6875 0 0 Z " fill="#24292F" transform="translate(138,370)"/>
<path d="M0 0 C0.99 0.33 1.98 0.66 3 1 C-20.38904558 22.93133152 -20.38904558 22.93133152 -24.00317383 25.32885742 C-26.33067791 27.27674414 -26.97413895 28.67352786 -28 31.5078125 C-28.32806641 32.40314697 -28.65613281 33.29848145 -28.99414062 34.22094727 C-29.32607422 35.17928467 -29.65800781 36.13762207 -30 37.125 C-30.34740234 38.1162085 -30.69480469 39.10741699 -31.05273438 40.12866211 C-39.66993615 65.22242252 -41.51351225 89.86735315 -30.1875 114.6875 C-29.76855469 115.49574219 -29.34960938 116.30398437 -28.91796875 117.13671875 C-28 119 -28 119 -28 121 C-31 120 -31 120 -32.16796875 118.109375 C-35.55201294 110.27810031 -35.55201294 110.27810031 -35 106 C-35.66 106 -36.32 106 -37 106 C-37.4847523 103.88786497 -37.9642442 101.77442686 -38.421875 99.65625 C-38.78567599 97.98473194 -39.16844402 96.31711883 -39.578125 94.65625 C-40.99932542 88.24054525 -41.18169724 81.98126817 -41.1875 75.4375 C-41.18830566 74.54377686 -41.18911133 73.65005371 -41.18994141 72.72924805 C-41.13417456 66.26834912 -41.13417456 66.26834912 -40 64 C-39.79777644 62.33727297 -39.63588613 60.66945815 -39.5 59 C-39.11111111 54.22222222 -39.11111111 54.22222222 -38 52 C-37.34 52 -36.68 52 -36 52 C-35.95875 50.865625 -35.9175 49.73125 -35.875 48.5625 C-35.05612524 40.72649841 -31.74977797 33.32433215 -29 26 C-28.34 26 -27.68 26 -27 26 C-27 25.01 -27 24.02 -27 23 C-25.13671875 21.28125 -25.13671875 21.28125 -22.6875 19.5 C-19.36881039 17.0858481 -19.36881039 17.0858481 -16.39453125 14.28125 C-15 13 -15 13 -12 13 C-12 12.01 -12 11.02 -12 10 C-11.01 10 -10.02 10 -9 10 C-8.67 8.68 -8.34 7.36 -8 6 C-7.01 6 -6.02 6 -5 6 C-5 5.34 -5 4.68 -5 4 C-4.34 4 -3.68 4 -3 4 C-3 3.34 -3 2.68 -3 2 C-2.01 2 -1.02 2 0 2 C0 1.34 0 0.68 0 0 Z " fill="#D2F6FD" transform="translate(107,82)"/>
<path d="M0 0 C0 12.54 0 25.08 0 38 C-5.61 38.66 -11.22 39.32 -17 40 C-23.40613781 41.52873743 -28.45777145 43.54095205 -34.08984375 46.9140625 C-36 48 -36 48 -39 49 C-39.495 47.515 -39.495 47.515 -40 46 C-31.07334254 36.81829519 -16.12357313 35.73193902 -4 34 C-3.34 23.44 -2.68 12.88 -2 2 C-5.3 2.33 -8.6 2.66 -12 3 C-14.88600291 3.06295818 -17.74211657 3.09805739 -20.625 3.0625 C-21.34300781 3.05798828 -22.06101563 3.05347656 -22.80078125 3.04882812 C-24.53389208 3.03727405 -26.2669587 3.01935158 -28 3 C-28 2.67 -28 2.34 -28 2 C-23.70842879 1.66543007 -19.41672796 1.33255274 -15.125 1 C-13.90167969 0.90460938 -12.67835938 0.80921875 -11.41796875 0.7109375 C-9.66806641 0.57558594 -9.66806641 0.57558594 -7.8828125 0.4375 C-6.26463623 0.31181641 -6.26463623 0.31181641 -4.61376953 0.18359375 C-3.07841213 0.07574873 -1.53914031 0 0 0 Z " fill="#1596DD" transform="translate(159,69)"/>
<path d="M0 0 C1.19799449 4.14659373 0.8896192 7.99369047 0.5625 12.25 C0.48418945 13.36761719 0.48418945 13.36761719 0.40429688 14.5078125 C0.2751783 16.33894861 0.13834886 18.16953813 0 20 C4.29 20 8.58 20 13 20 C13 24.95 13 29.9 13 35 C9.04 35 5.08 35 1 35 C1 44.9 1 54.8 1 65 C3.97 65 6.94 65 10 65 C10 65.33 10 65.66 10 66 C6.37 66 2.74 66 -1 66 C-2.80601709 59.2274359 -3.30122533 52.66526794 -3.4375 45.6875 C-3.47166016 44.81577148 -3.50582031 43.94404297 -3.54101562 43.04589844 C-3.57202471 38.57542166 -3.44801478 36.60397897 -0.7109375 32.9140625 C2.72245181 30.48991155 4.88635683 30.59670165 9 31 C9 28.36 9 25.72 9 23 C8.37351563 22.95101562 7.74703125 22.90203125 7.1015625 22.8515625 C6.28429687 22.77679688 5.46703125 22.70203125 4.625 22.625 C3.81289062 22.55539063 3.00078125 22.48578125 2.1640625 22.4140625 C0 22 0 22 -2 20 C-2.19986152 17.51642668 -2.278386 15.16890927 -2.25 12.6875 C-2.25515625 11.37136719 -2.2603125 10.05523437 -2.265625 8.69921875 C-2.02139485 5.29795479 -1.47970157 3.03573695 0 0 Z " fill="#2663AE" transform="translate(142,201)"/>
<path d="M0 0 C0.66 0.33 1.32 0.66 2 1 C1.13375 1.3403125 1.13375 1.3403125 0.25 1.6875 C-2.55338976 3.32281069 -4.00442154 5.47226728 -6 8 C-6.66 8 -7.32 8 -8 8 C-8 8.66 -8 9.32 -8 10 C-9.57421875 11.62109375 -9.57421875 11.62109375 -11.6875 13.4375 C-12.37199219 14.03433594 -13.05648437 14.63117188 -13.76171875 15.24609375 C-16 17 -16 17 -18.45703125 18.453125 C-21.26931459 20.1638227 -23.56009386 22.10514742 -26 24.3125 C-26.825 25.05113281 -27.65 25.78976563 -28.5 26.55078125 C-34.98796147 32.90695601 -37.47074934 38.15385023 -40.1875 46.8125 C-40.52974609 47.85470703 -40.87199219 48.89691406 -41.22460938 49.97070312 C-42.19397208 52.96913961 -43.11330943 55.97616445 -44 59 C-44.22292725 59.75651855 -44.44585449 60.51303711 -44.67553711 61.29248047 C-46.40693421 67.97105521 -46.25991691 74.63945043 -46.1875 81.5 C-46.18685547 82.69109375 -46.18621094 83.8821875 -46.18554688 85.109375 C-46.6712511 90.41633005 -46.6712511 90.41633005 -45 95 C-44.62267887 97.03399672 -44.29843234 99.07794064 -44 101.125 C-43.82726562 102.29675781 -43.65453125 103.46851563 -43.4765625 104.67578125 C-43.31929688 105.77277344 -43.16203125 106.86976563 -43 108 C-42.88398437 108.79792969 -42.76796875 109.59585938 -42.6484375 110.41796875 C-42.42808295 111.94471098 -42.21317597 113.47223891 -42 115 C-50.86775806 101.6983629 -51.02710981 80.09692217 -48.11328125 64.90234375 C-47.00154129 59.85137925 -45.53402624 54.93594356 -44 50 C-43.75894531 49.16098145 -43.51789063 48.32196289 -43.26953125 47.45751953 C-39.67455937 35.05343996 -35.27758771 27.78396388 -25 20 C-23.63512284 18.82482599 -22.27952967 17.63869939 -20.9375 16.4375 C-20.32003906 15.90511719 -19.70257813 15.37273437 -19.06640625 14.82421875 C-17.44678521 13.39442097 -15.85621621 11.93170266 -14.27734375 10.45703125 C-13.31957031 9.56371094 -12.36179688 8.67039062 -11.375 7.75 C-10.49585938 6.91984375 -9.61671875 6.0896875 -8.7109375 5.234375 C-5.918602 2.93291116 -3.34626156 1.36849912 0 0 Z " fill="#2B76B8" transform="translate(117,78)"/>
<path d="M0 0 C12.87 0 25.74 0 39 0 C39 1.98 39 3.96 39 6 C33.60653012 6.02464849 28.21309275 6.04283531 22.81958008 6.05493164 C20.98331125 6.05997231 19.14704646 6.06680477 17.31079102 6.07543945 C14.67723599 6.08751672 12.04373384 6.09323081 9.41015625 6.09765625 C8.17109276 6.10539818 8.17109276 6.10539818 6.90699768 6.11329651 C4.93763632 6.11349205 2.96838386 6.06204152 1 6 C0.67 5.67 0.34 5.34 0 5 C0 3.35 0 1.7 0 0 Z " fill="#0453CC" transform="translate(8,135)"/>
<path d="M0 0 C13.86 0.99 13.86 0.99 28 2 C28 2.33 28 2.66 28 3 C25.16660035 3.02724423 22.33346883 3.04695589 19.5 3.0625 C18.31277344 3.07506836 18.31277344 3.07506836 17.1015625 3.08789062 C16.31523437 3.09111328 15.52890625 3.09433594 14.71875 3.09765625 C14.00654297 3.10289307 13.29433594 3.10812988 12.56054688 3.11352539 C9.02432384 2.95674205 5.51236295 2.43904537 2 2 C2 13.55 2 25.1 2 37 C6.29 37 10.58 37 15 37 C18.39279567 37.58621699 21.47122129 38.19757402 24.75 39.125 C25.5642041 39.34873291 26.3784082 39.57246582 27.21728516 39.80297852 C36.04533878 42.37657157 42.73892928 46.34753351 48 54 C49.63768682 57.93044836 50.39905052 61.79335366 51 66 C48.945088 63.3399973 47.17048245 60.62623355 45.4375 57.75 C38.57544033 47.54918758 29.59755918 43.2859751 18 40 C12.06 39.34 6.12 38.68 0 38 C0 25.46 0 12.92 0 0 Z " fill="#DADF52" transform="translate(159,69)"/>
<path d="M0 0 C1.09142742 2.74490727 1.03727116 3.8908376 0.06640625 6.734375 C-3.42238197 13.73007501 -7.10154869 18.88573586 -13 24 C-13.65871094 24.60070312 -14.31742188 25.20140625 -14.99609375 25.8203125 C-19.67151163 30 -19.67151163 30 -22 30 C-22.268125 30.598125 -22.53625 31.19625 -22.8125 31.8125 C-23.99917406 33.99847854 -25.09599113 35.41332594 -27 37 C-27.66 37 -28.32 37 -29 37 C-29.02578125 37.96421875 -29.0515625 38.9284375 -29.078125 39.921875 C-29.13484375 41.18515625 -29.1915625 42.4484375 -29.25 43.75 C-29.31960937 45.62945312 -29.31960937 45.62945312 -29.390625 47.546875 C-30 51 -30 51 -31.6875 53.46875 C-35.93272073 56.27977453 -40.14318932 54.6938301 -45 54 C-44.67 57.96 -44.34 61.92 -44 66 C-40.7 66.33 -37.4 66.66 -34 67 C-34 67.33 -34 67.66 -34 68 C-37.96 68 -41.92 68 -46 68 C-46 63.05 -46 58.1 -46 53 C-42.04 53 -38.08 53 -34 53 C-34.061875 52.05125 -34.12375 51.1025 -34.1875 50.125 C-34.14206987 42.64417265 -31.88664899 36.08080029 -26.73046875 30.64453125 C-22.94513091 27.04717858 -19.02490634 23.62999153 -14.95703125 20.35546875 C-8.2290925 14.79873791 -3.02312515 8.24755502 0 0 Z M-39 55 C-37.35 55 -35.7 55 -34 55 C-34 55.33 -34 55.66 -34 56 C-35.65 56 -37.3 56 -39 56 C-39 55.67 -39 55.34 -39 55 Z " fill="#EDC136" transform="translate(209,168)"/>
<path d="M0 0 C2.81640625 0.4375 2.81640625 0.4375 4.81640625 2.4375 C5.34375 5.11328125 5.34375 5.11328125 4.81640625 8.4375 C2.97127989 11.1319824 0.70186262 13.34053258 -1.62109375 15.625 C-2.91161969 16.94391425 -4.19937249 18.26554751 -5.484375 19.58984375 C-6.11682129 20.23808105 -6.74926758 20.88631836 -7.40087891 21.55419922 C-10.606447 24.94063475 -13.4522016 28.58785249 -16.31640625 32.265625 C-18.11917879 34.36257381 -19.90883969 35.88055722 -22.18359375 37.4375 C-24.49359375 35.4575 -26.80359375 33.4775 -29.18359375 31.4375 C-28.13506861 27.24339944 -27.56298469 26.49469154 -24.55859375 23.6875 C-21.85356013 21.08318572 -19.26114159 18.46878761 -16.80859375 15.625 C-16.24527344 14.97917969 -15.68195313 14.33335938 -15.1015625 13.66796875 C-13.62913006 11.95562878 -12.17719385 10.22564685 -10.734375 8.48828125 C-9.86386901 7.47085099 -8.99277796 6.453921 -8.12109375 5.4375 C-7.32574219 4.48875 -6.53039062 3.54 -5.7109375 2.5625 C-3.18359375 0.4375 -3.18359375 0.4375 0 0 Z M-6.18359375 5.4375 C-8.07672148 7.33921984 -8.07672148 7.33921984 -9.80859375 9.5 C-12.98914931 13.34027778 -12.98914931 13.34027778 -15.18359375 14.4375 C-15.74046875 15.4584375 -15.74046875 15.4584375 -16.30859375 16.5 C-18.59992986 20.08975991 -21.45148247 22.5737993 -24.63671875 25.375 C-26.50118526 27.37817619 -26.50118526 27.37817619 -25.91796875 30.1875 C-25.675625 30.93 -25.43328125 31.6725 -25.18359375 32.4375 C-22.94375875 33.38770416 -22.94375875 33.38770416 -20.18359375 33.4375 C-17.47541647 31.22947732 -17.47541647 31.22947732 -15.18359375 28.4375 C-14.64734375 27.9425 -14.11109375 27.4475 -13.55859375 26.9375 C-12.04444967 25.39383896 -12.04444967 25.39383896 -10.80859375 23.0625 C-8.94938377 20.0591608 -6.67589194 17.92979819 -4.18359375 15.4375 C-3.16054427 13.78488161 -2.15743321 12.11958635 -1.18359375 10.4375 C-0.62671875 9.921875 -0.06984375 9.40625 0.50390625 8.875 C2.26591916 7.26960158 2.26591916 7.26960158 1.81640625 3.4375 C-2.02664324 3.4375 -3.10878828 3.4868823 -6.18359375 5.4375 Z " fill="#F2DE3C" transform="translate(258.18359375,38.5625)"/>
<path d="M0 0 C1.86181641 1.37011719 1.86181641 1.37011719 3.6015625 3.296875 C4.25189453 4.00336182 4.90222656 4.70984863 5.57226562 5.43774414 C6.24966797 6.20078857 6.92707031 6.96383301 7.625 7.75 C8.32560547 8.51755615 9.02621094 9.2851123 9.74804688 10.07592773 C11.16747621 11.63317677 12.58126222 13.19558906 13.98925781 14.76318359 C16.32137632 17.3575097 18.6827582 19.92353971 21.04833984 22.48730469 C23.04134279 24.64991065 25.02132122 26.82429177 27 29 C25.20953589 33.13718891 22.83902629 34.66320139 19 37 C14.49504356 32.60035423 10.14551619 28.14458223 6.078125 23.3359375 C4.38707657 21.43509735 2.66136606 19.64395716 0.859375 17.8515625 C0.30668945 17.28912842 -0.24599609 16.72669434 -0.81542969 16.1472168 C-1.92005457 15.02610259 -3.04020198 13.92002929 -4.17675781 12.83129883 C-7.12725218 9.79811961 -8.0037627 8.46234184 -7.96875 4.16015625 C-7.6490625 3.11730469 -7.329375 2.07445312 -7 1 C-4.43461417 -0.28269291 -2.84709288 -0.29406593 0 0 Z M-5 3 C-4.72718782 9.48962305 -2.54975162 12.39813163 1.9375 16.9375 C2.48857422 17.52595703 3.03964844 18.11441406 3.60742188 18.72070312 C5.0198814 20.1983795 6.50512182 21.60575878 8 23 C8.66 23 9.32 23 10 23 C10 23.99 10 24.98 10 26 C10.66 26 11.32 26 12 26 C12 26.66 12 27.32 12 28 C14.96187272 30.17204 17.50685991 31.83561997 21 33 C21.81960963 30.75673098 21.81960963 30.75673098 22 28 C18.39186594 21.03693428 12.59789266 15.31265164 6.96484375 9.94921875 C5 8 5 8 2.8125 4.9375 C1.06840699 2.64493472 1.06840699 2.64493472 -2.25 2.6875 C-3.61125 2.8421875 -3.61125 2.8421875 -5 3 Z " fill="#3797C7" transform="translate(62,39)"/>
<path d="M0 0 C0.99 0 1.98 0 3 0 C7.93922455 17.74755436 2.33929578 38.71593749 -5 55 C-6.6875 57.453125 -6.6875 57.453125 -8 59 C-7.56341827 56.45327327 -7.07926397 54.18407582 -6.0546875 51.8046875 C-4.76358758 48.37131808 -4.12444227 44.91162057 -3.5 41.3125 C-3.26113732 39.9751315 -3.02154265 38.63789356 -2.78125 37.30078125 C-2.65991699 36.60662109 -2.53858398 35.91246094 -2.41357422 35.19726562 C-2.12884135 33.68451718 -1.81070071 32.17780142 -1.46533203 30.67773438 C0.04019976 24.01552283 0.23769488 17.68870592 0.125 10.875 C0.11146484 9.2971875 0.11146484 9.2971875 0.09765625 7.6875 C0.07435853 5.12475122 0.04165112 2.56250488 0 0 Z " fill="#F2CD2E" transform="translate(246,144)"/>
<path d="M0 0 C1.71802382 3.43604765 1.1196618 7.38438896 1.09765625 11.1640625 C1.0962413 12.07127045 1.09482635 12.97847839 1.09336853 13.91317749 C1.08776096 16.81715155 1.07520718 19.72104915 1.0625 22.625 C1.05748598 24.59114472 1.0529229 26.55729065 1.04882812 28.5234375 C1.03778906 33.3489879 1.02051935 38.17448097 1 43 C0.67 43 0.34 43 0 43 C-0.01981934 41.82904785 -0.03963867 40.6580957 -0.06005859 39.45166016 C-0.13600081 35.11663926 -0.2247352 30.78195905 -0.31738281 26.44726562 C-0.35571977 24.56940424 -0.39056427 22.69146824 -0.421875 20.81347656 C-0.46742363 18.11756679 -0.52543375 15.42217288 -0.5859375 12.7265625 C-0.59748871 11.88380768 -0.60903992 11.04105286 -0.62094116 10.17276001 C-0.54193181 5.60979043 -0.54193181 5.60979043 -3 2 C-5.54190002 1.7499227 -5.54190002 1.7499227 -8 2 C-10.13086442 4.13086442 -9.25960872 8.89166935 -9.31640625 11.84765625 C-9.33718735 12.7340831 -9.35796844 13.62050995 -9.37937927 14.53379822 C-9.444974 17.376617 -9.50380552 20.21953117 -9.5625 23.0625 C-9.6056758 24.98503606 -9.64928978 26.90756234 -9.69335938 28.83007812 C-9.80066543 33.55328668 -9.90190451 38.27659153 -10 43 C-10.66 43 -11.32 43 -12 43 C-12.90104492 37.6223351 -13.15785236 32.44792404 -13.125 27 C-13.12089111 26.17564453 -13.11678223 25.35128906 -13.11254883 24.50195312 C-13.06470761 19.16431312 -12.95698502 13.83128977 -12.6875 8.5 C-12.62949219 7.3140625 -12.57148438 6.128125 -12.51171875 4.90625 C-11.96440333 1.79783267 -11.53489631 0.80272966 -9 -1 C-5.30241099 -2.23252967 -3.25059282 -2.20575941 0 0 Z " fill="#C4F0FC" transform="translate(164,6)"/>
<path d="M0 0 C3 1 3 1 4.53515625 3.546875 C5.03917969 4.60390625 5.54320313 5.6609375 6.0625 6.75 C6.56910156 7.79671875 7.07570313 8.8434375 7.59765625 9.921875 C9 13 9 13 9.99609375 15.828125 C10.32738281 16.54484375 10.65867187 17.2615625 11 18 C11.99 18.33 12.98 18.66 14 19 C14 19.99 14 20.98 14 22 C14.99 22 15.98 22 17 22 C18.5703125 24.08203125 18.5703125 24.08203125 20.125 26.8125 C20.64320312 27.70582031 21.16140625 28.59914062 21.6953125 29.51953125 C23 32 23 32 24 35 C24.66 35.33 25.32 35.66 26 36 C27.02178143 37.72425617 28.04130093 39.45082593 29 41.2109375 C29.91907273 42.85521605 30.95510816 44.43266224 32 46 C32 47.32 32 48.64 32 50 C32.66 50 33.32 50 34 50 C36.92975651 57.55490512 39.18120817 65.10479003 41 73 C40.34 73 39.68 73 39 73 C38.51080078 71.21142578 38.51080078 71.21142578 38.01171875 69.38671875 C37.57083265 67.82016602 37.12939767 66.25376769 36.6875 64.6875 C36.36749023 63.50897461 36.36749023 63.50897461 36.04101562 62.30664062 C35.71713867 61.1706543 35.71713867 61.1706543 35.38671875 60.01171875 C35.09607544 58.96697388 35.09607544 58.96697388 34.79956055 57.90112305 C33.87988266 55.71439581 32.712652 54.6149131 31 53 C29.89413487 50.96042288 28.8397197 48.89279618 27.8125 46.8125 C24.06993141 39.47440222 19.57016663 32.73952785 14.9375 25.9375 C9.23510001 17.55254225 4.06234476 9.30407993 0 0 Z " fill="#1654AD" transform="translate(75,194)"/>
<path d="M0 0 C3.63 0 7.26 0 11 0 C11 0.33 11 0.66 11 1 C8.36 1.66 5.72 2.32 3 3 C3 5.31 3 7.62 3 10 C3.69867188 10.08636719 4.39734375 10.17273438 5.1171875 10.26171875 C6.02726563 10.40222656 6.93734375 10.54273438 7.875 10.6875 C9.23238281 10.87892578 9.23238281 10.87892578 10.6171875 11.07421875 C13 12 13 12 14.12792969 14.16699219 C15.76907919 19.49843083 15.36918873 25.02726253 15.375 30.5625 C15.39949219 31.79419922 15.42398438 33.02589844 15.44921875 34.29492188 C15.45501953 36.06899414 15.45501953 36.06899414 15.4609375 37.87890625 C15.46915527 38.9572876 15.47737305 40.03566895 15.48583984 41.14672852 C14.88493937 44.67573548 13.8036525 45.8413282 11 48 C8.2734375 48.50390625 8.2734375 48.50390625 5.375 48.5625 C2.52662425 48.56591909 2.52662425 48.56591909 0 49 C-0.66 49.99 -1.32 50.98 -2 52 C-2 50.02 -2 48.04 -2 46 C4.435 45.505 4.435 45.505 11 45 C11 34.77 11 24.54 11 14 C7.7 13.67 4.4 13.34 1 13 C0 12 0 12 -0.09765625 9.27734375 C-0.08605469 8.17519531 -0.07445312 7.07304687 -0.0625 5.9375 C-0.05347656 4.83277344 -0.04445312 3.72804687 -0.03515625 2.58984375 C-0.02355469 1.73519531 -0.01195312 0.88054687 0 0 Z " fill="#ED9D16" transform="translate(164,222)"/>
<path d="M0 0 C4.65707363 2.27048465 7.67171927 5.34343854 10 10 C10.42801938 16.20628094 9.44563344 20.29352198 7 26 C5.89535282 22.68605847 6.17745321 22.19942339 7 19 C7.06743348 16.91765408 7.08514472 14.83331443 7.0625 12.75 C7.05347656 11.67234375 7.04445312 10.5946875 7.03515625 9.484375 C7.02355469 8.66453125 7.01195312 7.8446875 7 7 C6.01 6.67 5.02 6.34 4 6 C4 5.34 4 4.68 4 4 C1.79317093 3.77629404 -0.41559973 3.57169609 -2.625 3.375 C-3.85476562 3.25898438 -5.08453125 3.14296875 -6.3515625 3.0234375 C-10.81617052 2.99475693 -14.46120751 3.51616439 -17.75 6.6875 C-19.36824994 9.6812624 -20.17710132 12.70840527 -21 16 C-21.66 16 -22.32 16 -23 16 C-23 17.98 -23 19.96 -23 22 C-23.66 22 -24.32 22 -25 22 C-25.42151713 15.39623161 -24.40651917 9.72819478 -20.76953125 4.09375 C-15.41633003 -1.74110172 -7.29878301 -1.04383926 0 0 Z " fill="#2F8AC7" transform="translate(166,139)"/>
<path d="M0 0 C12.87 0.495 12.87 0.495 26 1 C26 1.66 26 2.32 26 3 C23.2915983 3.02714434 20.58347279 3.04690846 17.875 3.0625 C16.73417969 3.07506836 16.73417969 3.07506836 15.5703125 3.08789062 C11.2610356 3.10646509 7.24483526 2.86117265 3 2 C1.97749595 8.69860922 1.88243727 15.2315198 1.9375 22 C1.94426758 23.59134766 1.94426758 23.59134766 1.95117188 25.21484375 C1.96286157 27.80995598 1.97924724 30.40494709 2 33 C2.79857422 32.95907227 3.59714844 32.91814453 4.41992188 32.87597656 C12.35557054 32.5227334 18.65525759 34.08293918 26 37 C26 37.66 26 38.32 26 39 C22.8630672 38.54093666 19.95632805 37.98573977 16.9375 37 C11.42736737 35.60060124 5.66831205 35.436024 0 35 C0 23.45 0 11.9 0 0 Z " fill="#F3D916" transform="translate(161,71)"/>
<path d="M0 0 C0.66 0 1.32 0 2 0 C5.3528689 11.12134641 6.85171818 21.36915995 6 33 C5.505 33.495 5.505 33.495 5 34 C4.7623695 37.09296835 4.60483681 40.17815582 4.48242188 43.27734375 C4.21409125 48.43131694 3.18744512 52.07040169 0.5 56.4375 C-1.09311915 58.95694193 -1.09311915 58.95694193 -1.9375 61.8125 C-3.25186544 65.75559633 -5.07789595 69.32374274 -7 73 C-7.66 73 -8.32 73 -9 73 C-7.62364781 68.64045381 -5.94366754 64.5394167 -4.0625 60.375 C4.29613169 41.33687981 5.47813165 19.98865895 0 0 Z " fill="#FEF7B7" transform="translate(246,134)"/>
<path d="M0 0 C0.66 0 1.32 0 2 0 C2 5.28 2 10.56 2 16 C7.30252555 15.95574234 12.60387221 15.88579988 17.90576172 15.79248047 C19.70774939 15.76432947 21.50985919 15.74308578 23.31201172 15.72900391 C25.90916198 15.70749245 28.50485295 15.66080243 31.1015625 15.609375 C31.9017984 15.60814636 32.7020343 15.60691772 33.52651978 15.60565186 C38.91739769 15.46584419 41.78223475 14.38601014 46 11 C45.39816251 13.02045442 44.72693904 15.02111039 44 17 C40.63328122 18.68335939 36.827034 18.14154289 33.125 18.1328125 C31.80459717 18.13424759 31.80459717 18.13424759 30.45751953 18.13571167 C28.59472584 18.13639276 26.73192977 18.13454343 24.86914062 18.13037109 C22.01166472 18.12502184 19.154346 18.13031849 16.296875 18.13671875 C14.48958299 18.13605796 12.68229107 18.13477677 10.875 18.1328125 C9.58746826 18.13584885 9.58746826 18.13584885 8.27392578 18.13894653 C2.22991745 18.11495872 2.22991745 18.11495872 0 17 C0 11.39 0 5.78 0 0 Z " fill="#FEECBE" transform="translate(158,266)"/>
<path d="M0 0 C2.97 0 5.94 0 9 0 C9 0.99 9 1.98 9 3 C8.505 2.505 8.505 2.505 8 2 C5.24871566 1.33912662 5.24871566 1.33912662 2 2 C-0.62374225 3.97572348 -2.67609914 6.39273948 -4.8125 8.875 C-5.42198486 9.55739746 -6.03146973 10.23979492 -6.65942383 10.94287109 C-7.88279072 12.31473543 -9.09963256 13.69244902 -10.30957031 15.07617188 C-11.78558533 16.755981 -13.28320773 18.40835832 -14.8046875 20.046875 C-18.34461401 23.87695942 -21.41945849 27.44610321 -24 32 C-23.401875 32.2475 -22.80375 32.495 -22.1875 32.75 C-19.71352479 34.16370012 -18.56629745 35.65055383 -17 38 C-17.99 38 -18.98 38 -20 38 C-20 37.34 -20 36.68 -20 36 C-21.98 35.67 -23.96 35.34 -26 35 C-25.53199289 30.94393835 -25.12046792 27.53411321 -23 24 C-22.34 24 -21.68 24 -21 24 C-20.34 22.68 -19.68 21.36 -19 20 C-18.01 20 -17.02 20 -16 20 C-16 18.68 -16 17.36 -16 16 C-15.01 16 -14.02 16 -13 16 C-12.9175 15.4225 -12.835 14.845 -12.75 14.25 C-11.774018 11.32205399 -10.36488777 9.94755463 -8 8 C-7.01 8 -6.02 8 -5 8 C-5 7.01 -5 6.02 -5 5 C-4.34 5 -3.68 5 -3 5 C-3 4.01 -3 3.02 -3 2 C-2.01 2 -1.02 2 0 2 C0 1.34 0 0.68 0 0 Z " fill="#FEFBC4" transform="translate(253,38)"/>
<path d="M0 0 C4.29 0 8.58 0 13 0 C13 9.9 13 19.8 13 30 C7.72 30 2.44 30 -3 30 C-3 29.34 -3 28.68 -3 28 C1.29 28 5.58 28 10 28 C10 19.75 10 11.5 10 3 C8.68 3.33 7.36 3.66 6 4 C2.75 3.0625 2.75 3.0625 0 2 C0 1.34 0 0.68 0 0 Z " fill="#FEF9D4" transform="translate(162,236)"/>
<path d="M0 0 C0.66 0.33 1.32 0.66 2 1 C1.13375 1.3403125 1.13375 1.3403125 0.25 1.6875 C-2.55338976 3.32281069 -4.00442154 5.47226728 -6 8 C-6.66 8 -7.32 8 -8 8 C-8 8.66 -8 9.32 -8 10 C-9.57421875 11.62109375 -9.57421875 11.62109375 -11.6875 13.4375 C-12.37199219 14.03433594 -13.05648437 14.63117188 -13.76171875 15.24609375 C-16 17 -16 17 -18.45703125 18.453125 C-28.43402795 24.52208152 -35.93094453 32.77174828 -39 44 C-39.66 43.67 -40.32 43.34 -41 43 C-38.49086641 34.83196937 -36.02046872 29.6320815 -29.42578125 24.07421875 C-27.15271024 22.13057832 -24.94987398 20.12557909 -22.75927734 18.08984375 C-18.07812402 13.74035415 -13.32632039 9.49028236 -8.4375 5.375 C-7.46683594 4.55773437 -6.49617188 3.74046875 -5.49609375 2.8984375 C-3 1 -3 1 0 0 Z " fill="#3195CA" transform="translate(117,78)"/>
<path d="M0 0 C14.12319374 4.3852839 24.04569295 12.13956871 34.390625 22.42333984 C37.46074357 25.43105006 40.7263305 28.21790387 44 31 C43.01 31.495 43.01 31.495 42 32 C41.34 31.67 40.68 31.34 40 31 C40 30.34 40 29.68 40 29 C39.4225 28.7525 38.845 28.505 38.25 28.25 C35.6953267 26.83073705 34.05930146 25.05930146 32 23 C31.29875 22.67 30.5975 22.34 29.875 22 C28 21 28 21 27.0625 19 C25.58303209 16.21511923 23.92082446 16.14904511 21 15 C18.81021767 13.74792149 16.64466023 12.45288543 14.5 11.125 C13.3965625 10.44695312 12.293125 9.76890625 11.15625 9.0703125 C8 7 8 7 5.28125 4.8046875 C3.04657521 2.82631202 3.04657521 2.82631202 0 2 C0 1.34 0 0.68 0 0 Z " fill="#F3E135" transform="translate(187,72)"/>
<path d="M0 0 C0.33 0.66 0.66 1.32 1 2 C-0.32006836 4.39160156 -0.32006836 4.39160156 -2.33984375 7.390625 C-3.06977539 8.48608643 -3.79970703 9.58154785 -4.55175781 10.71020508 C-4.94190063 11.28864166 -5.33204346 11.86707825 -5.73400879 12.46304321 C-7.73195063 15.42960891 -9.69919138 18.41637588 -11.66796875 21.40234375 C-12.0522403 21.98420944 -12.43651184 22.56607513 -12.83242798 23.16557312 C-19.54918593 33.35903013 -25.00765768 43.44524001 -29 55 C-30.8146228 50.19124957 -28.55784417 46.77708707 -26.609375 42.31640625 C-24.46200941 37.89137377 -22.01609763 33.69156851 -19.453125 29.49609375 C-17.88706039 27.00119033 -17.88706039 27.00119033 -17 24 C-16.34 24 -15.68 24 -15 24 C-15.08765625 23.30003906 -15.1753125 22.60007813 -15.265625 21.87890625 C-14.8998284 17.91431658 -13.18869337 16.04880074 -10.75 12.9375 C-9.56664062 11.40416016 -9.56664062 11.40416016 -8.359375 9.83984375 C-6.34037826 7.4096937 -4.23722178 5.22288062 -2 3 C-1.34 2.01 -0.68 1.02 0 0 Z " fill="#E7B941" transform="translate(237,203)"/>
<path d="M0 0 C0 12.54 0 25.08 0 38 C-2.97 38 -5.94 38 -9 38 C-9 37.67 -9 37.34 -9 37 C-6.69 37 -4.38 37 -2 37 C-2 25.45 -2 13.9 -2 2 C-5.3 2.33 -8.6 2.66 -12 3 C-14.88600291 3.06295818 -17.74211657 3.09805739 -20.625 3.0625 C-21.34300781 3.05798828 -22.06101563 3.05347656 -22.80078125 3.04882812 C-24.53389208 3.03727405 -26.2669587 3.01935158 -28 3 C-28 2.67 -28 2.34 -28 2 C-23.70842879 1.66543007 -19.41672796 1.33255274 -15.125 1 C-13.90167969 0.90460938 -12.67835938 0.80921875 -11.41796875 0.7109375 C-9.66806641 0.57558594 -9.66806641 0.57558594 -7.8828125 0.4375 C-6.26463623 0.31181641 -6.26463623 0.31181641 -4.61376953 0.18359375 C-3.07841213 0.07574873 -1.53914031 0 0 0 Z " fill="#37A5B5" transform="translate(159,69)"/>
<path d="M0 0 C0.66 0.33 1.32 0.66 2 1 C2.3125 3.6875 2.3125 3.6875 2 7 C-0.125 9.5 -0.125 9.5 -3 12 C-4.05341897 12.96651191 -5.09497167 13.94609774 -6.125 14.9375 C-6.60195313 15.37964844 -7.07890625 15.82179688 -7.5703125 16.27734375 C-9.17199824 18.06539329 -9.17199824 18.06539329 -10.35546875 20.82421875 C-12.21209363 24.40957748 -14.42836321 26.93669848 -17.1875 29.875 C-17.65091797 30.37257813 -18.11433594 30.87015625 -18.59179688 31.3828125 C-19.72173265 32.59429003 -20.86000716 33.79798129 -22 35 C-23.32 34.67 -24.64 34.34 -26 34 C-25.35933594 33.29875 -24.71867188 32.5975 -24.05859375 31.875 C-19.56757907 26.94893919 -15.0831477 22.02160971 -10.734375 16.96875 C-9.46245098 15.52494436 -8.15488883 14.11232927 -6.828125 12.71875 C-1.513478 7.27533433 -1.513478 7.27533433 0 0 Z " fill="#FDFBCC" transform="translate(263,41)"/>
<path d="M0 0 C0.66 0 1.32 0 2 0 C2 10.56 2 21.12 2 32 C4.97 32 7.94 32 11 32 C11 32.33 11 32.66 11 33 C7.37 33 3.74 33 0 33 C-1.82869243 26.14240339 -2.21966713 19.62247615 -2.25 12.5625 C-2.25902344 11.67401367 -2.26804688 10.78552734 -2.27734375 9.87011719 C-2.27347656 9.02739258 -2.26960937 8.18466797 -2.265625 7.31640625 C-2.26336914 6.55787354 -2.26111328 5.79934082 -2.25878906 5.01782227 C-2 3 -2 3 0 0 Z " fill="#2457A9" transform="translate(141,234)"/>
<path d="M0 0 C1.72447904 0.00031742 3.44897767 0.01165954 5.17333984 0.03173828 C6.53415176 0.03598312 6.53415176 0.03598312 7.92245483 0.04031372 C10.82652857 0.05152926 13.73029646 0.07663615 16.63427734 0.10205078 C18.60041873 0.11207881 20.56656494 0.12120497 22.53271484 0.12939453 C27.35835393 0.15147306 32.18376374 0.18601213 37.00927734 0.22705078 C37.00927734 2.86705078 37.00927734 5.50705078 37.00927734 8.22705078 C36.67927734 8.22705078 36.34927734 8.22705078 36.00927734 8.22705078 C36.00927734 6.24705078 36.00927734 4.26705078 36.00927734 2.22705078 C22.80927734 2.22705078 9.60927734 2.22705078 -3.99072266 2.22705078 C-3.66072266 5.19705078 -3.33072266 8.16705078 -2.99072266 11.22705078 C-3.98072266 10.56705078 -4.97072266 9.90705078 -5.99072266 9.22705078 C-6.30322266 5.72705078 -6.30322266 5.72705078 -5.99072266 2.22705078 C-3.99072266 0.22705078 -3.99072266 0.22705078 0 0 Z " fill="#3064A6" transform="translate(11.99072265625,131.77294921875)"/>
<path d="M0 0 C15.99209459 -0.765579 30.00568379 3.21207536 42 14 C43.81436051 15.93278031 45.39828307 17.88160018 47 20 C46.67 20.66 46.34 21.32 46 22 C45.01 21.67 44.02 21.34 43 21 C43 19.68 43 18.36 43 17 C41.68 16.67 40.36 16.34 39 16 C38.505 14.02 38.505 14.02 38 12 C37.21625 11.87625 36.4325 11.7525 35.625 11.625 C33 11 33 11 31 9 C28.68234271 8.28072705 26.34904126 7.6090107 24 7 C24 6.34 24 5.68 24 5 C17.24976377 3.25424925 10.81010319 2.6414574 3.84375 2.34375 C2.9053125 2.2303125 1.966875 2.116875 1 2 C0.67 1.34 0.34 0.68 0 0 Z " fill="#FEF9BE" transform="translate(159,107)"/>
<path d="M0 0 C0.66 0.33 1.32 0.66 2 1 C1.55269531 1.52207031 1.10539062 2.04414062 0.64453125 2.58203125 C-9.75090401 15.23830744 -11.7521475 26.7779175 -13 43 C-1.12 43 10.76 43 23 43 C23 43.33 23 43.66 23 44 C10.79 44 -1.42 44 -14 44 C-14.061875 39.5759375 -14.061875 39.5759375 -14.125 35.0625 C-14.14320801 34.15250244 -14.16141602 33.24250488 -14.18017578 32.30493164 C-14.27247322 18.46478248 -14.27247322 18.46478248 -10.52001953 14.39477539 C-10.01841309 13.93449951 -9.51680664 13.47422363 -9 13 C-7.96210419 11.35666496 -6.96432076 9.68756133 -6 8 C-4.24544457 4.92952799 -2.63029739 2.37979288 0 0 Z " fill="#3D8DC8" transform="translate(118,118)"/>
<path d="M0 0 C3.94727588 -0.17942163 6.5980513 -0.09350689 10 2 C10 2.66 10 3.32 10 4 C10.7425 3.95875 11.485 3.9175 12.25 3.875 C17.32532226 4.10569647 19.57550133 6.47478078 23 10 C24.010625 10.804375 25.02125 11.60875 26.0625 12.4375 C28.90291574 14.91530948 30.16029871 16.78052274 32 20 C33.9333194 22.39291987 35.95434203 24.70277245 38 27 C34.54195801 25.53013875 32.48659384 23.60991564 29.9375 20.875 C21.15166393 11.94607214 11.22373154 6.24320306 0 1 C0 0.67 0 0.34 0 0 Z " fill="#FEFBBA" transform="translate(189,72)"/>
<path d="M0 0 C0.99 0.33 1.98 0.66 3 1 C-1.18667516 7.97779194 -6.88899768 13.27667049 -13.125 18.4375 C-18.91267135 23.42765759 -23.08958521 29.54938234 -25 37 C-25.98120464 33.94736336 -25.98120464 32.05263664 -25 29 C-24.34 29 -23.68 29 -23 29 C-22.79375 28.175 -22.5875 27.35 -22.375 26.5 C-19.58932849 19.4091998 -14.3801728 13.20974872 -8 9 C-5.7890625 8.33984375 -5.7890625 8.33984375 -4 8 C-4.33 7.01 -4.66 6.02 -5 5 C-3.68 4.67 -2.36 4.34 -1 4 C-0.67 2.68 -0.34 1.36 0 0 Z " fill="#2074BE" transform="translate(169,164)"/>
<path d="M0 0 C0.99 0.33 1.98 0.66 3 1 C2.38125 1.680625 1.7625 2.36125 1.125 3.0625 C-2.67996956 8.32231086 -3.08790712 13.61534986 -4 20 C-15.88 20 -27.76 20 -40 20 C-40 7 -40 7 -39 2 C-38.67 2 -38.34 2 -38 2 C-38.33 7.61 -38.66 13.22 -39 19 C-27.78 19 -16.56 19 -5 19 C-5 15.04 -5 11.08 -5 7 C-4.34 7 -3.68 7 -3 7 C-2.814375 5.5459375 -2.814375 5.5459375 -2.625 4.0625 C-2.41875 3.051875 -2.2125 2.04125 -2 1 C-1.34 0.67 -0.68 0.34 0 0 Z " fill="#CDF4FC" transform="translate(145,141)"/>
<path d="M0 0 C2 1 2 1 2.74609375 2.74658203 C3.08833984 3.86589111 3.08833984 3.86589111 3.4375 5.0078125 C3.69273438 5.83023438 3.94796875 6.65265625 4.2109375 7.5 C4.47132812 8.36625 4.73171875 9.2325 5 10.125 C5.26039062 10.96804688 5.52078125 11.81109375 5.7890625 12.6796875 C7.81132777 19.25715637 7.81132777 19.25715637 8.54052734 22.12817383 C8.95829121 23.771139 9.47090505 25.38943497 10 27 C12.49641128 28.51792644 12.49641128 28.51792644 15 29 C15 29.66 15 30.32 15 31 C16.98 30.67 18.96 30.34 21 30 C21 30.66 21 31.32 21 32 C13.03744691 33.59598014 13.03744691 33.59598014 9.0625 31.3125 C5.27725206 27.06843413 4.4400902 22.82121102 3.5 17.3125 C3.24463819 15.881305 2.98813356 14.45031342 2.73046875 13.01953125 C2.60720215 12.33068848 2.48393555 11.6418457 2.35693359 10.93212891 C1.67905381 7.26267568 0.84366244 3.6342382 0 0 Z " fill="#1B489A" transform="translate(108,249)"/>
<path d="M0 0 C6.70392308 0.34379093 11.84413964 4.03471092 16.6171875 8.51953125 C20.97887538 13.41029961 22.09654857 18.67583996 23 25 C20.945088 22.3399973 19.17048245 19.62623355 17.4375 16.75 C14.40853796 12.14203019 10.76844867 9.09431467 6.3671875 5.82421875 C4.04242578 4.03269446 2.02819303 2.11698489 0 0 Z " fill="#F0CF33" transform="translate(187,110)"/>
<path d="M0 0 C1.1055189 0.93590504 2.20935453 1.87379858 3.3125 2.8125 C3.92738281 3.33457031 4.54226562 3.85664062 5.17578125 4.39453125 C6.85424679 5.87172469 8.43882034 7.40039131 10 9 C8.49776416 13.20626034 5.71449966 14.73900021 2 17 C0.68141572 15.73548068 -0.62967631 14.46314525 -1.9375 13.1875 C-2.66839844 12.47980469 -3.39929688 11.77210937 -4.15234375 11.04296875 C-6 9 -6 9 -7 6 C-6.34 6 -5.68 6 -5 6 C-5 6.66 -5 7.32 -5 8 C-4.2575 8.268125 -3.515 8.53625 -2.75 8.8125 C-0.13363446 9.94229421 1.80187111 11.20893202 4 13 C3.50263981 7.25480417 3.50263981 7.25480417 0 3 C0 2.01 0 1.02 0 0 Z " fill="#2D80B8" transform="translate(79,59)"/>
<path d="M0 0 C1.01534595 3.3603116 1.13383137 6.43586286 1.125 9.9375 C1.12757813 10.95714844 1.13015625 11.97679687 1.1328125 13.02734375 C1.00911936 15.79588725 0.62526738 18.30539535 0 21 C1.051875 20.79375 2.10375 20.5875 3.1875 20.375 C7 20 7 20 12 22 C12 26.29 12 30.58 12 35 C11.67 35 11.34 35 11 35 C11 31.04 11 27.08 11 23 C6.71 23 2.42 23 -2 23 C-2.05447822 20.47886908 -2.09389852 17.9589415 -2.125 15.4375 C-2.14175781 14.73302734 -2.15851563 14.02855469 -2.17578125 13.30273438 C-2.22022044 8.48108178 -1.52768004 4.57702562 0 0 Z " fill="#CEEBF9" transform="translate(144,198)"/>
<path d="M0 0 C1.19044922 0.02255859 2.38089844 0.04511719 3.60742188 0.06835938 C6.5104822 0.12665376 9.41078237 0.20842118 12.3125 0.3125 C12.3125 0.6425 12.3125 0.9725 12.3125 1.3125 C11.24104736 1.34839233 11.24104736 1.34839233 10.14794922 1.38500977 C-4.11445501 1.94452248 -15.47928514 2.64393244 -27.6875 10.3125 C-29.33846537 11.0171528 -31.00087826 11.69806585 -32.6875 12.3125 C-32.6875 11.3225 -32.6875 10.3325 -32.6875 9.3125 C-31.3675 9.3125 -30.0475 9.3125 -28.6875 9.3125 C-28.6875 8.6525 -28.6875 7.9925 -28.6875 7.3125 C-27.3675 7.3125 -26.0475 7.3125 -24.6875 7.3125 C-24.6875 6.6525 -24.6875 5.9925 -24.6875 5.3125 C-16.31538102 0.60351488 -9.51123381 -0.34712532 0 0 Z " fill="#C2F7FD" transform="translate(144.6875,68.6875)"/>
<path d="M0 0 C0 0.66 0 1.32 0 2 C-3.71796435 2.51030883 -7.3559245 2.97653494 -11.109375 3.11328125 C-17.83487941 3.38956371 -22.36865675 4.21515017 -28.0546875 7.85546875 C-30.62243259 9.36621034 -33.05327918 9.77332917 -36 10 C-27.31670779 0.17039859 -12.07945892 -0.37359151 0 0 Z " fill="#DBFAFD" transform="translate(159,107)"/>
<path d="M0 0 C3.63 0 7.26 0 11 0 C11 0.33 11 0.66 11 1 C8.36 1.66 5.72 2.32 3 3 C3 5.31 3 7.62 3 10 C3.69867188 10.08636719 4.39734375 10.17273438 5.1171875 10.26171875 C7.83968863 10.68204824 10.38196209 11.13743453 13 12 C14.625 14.625 14.625 14.625 15 17 C14.34 17.33 13.68 17.66 13 18 C12.77441406 17.35417969 12.54882812 16.70835937 12.31640625 16.04296875 C11.17527888 13.75763398 11.17527888 13.75763398 8.65234375 13.42578125 C7.75644531 13.38839844 6.86054688 13.35101563 5.9375 13.3125 C1.06797583 13.06797583 1.06797583 13.06797583 0 12 C-0.07244053 9.98035801 -0.08377188 7.95832876 -0.0625 5.9375 C-0.05347656 4.83277344 -0.04445312 3.72804687 -0.03515625 2.58984375 C-0.02355469 1.73519531 -0.01195312 0.88054687 0 0 Z " fill="#F4B417" transform="translate(164,222)"/>
<path d="M0 0 C1.8125 0.1875 1.8125 0.1875 4 1 C7.21740568 4.95988391 9.09127928 9.89596679 9 15 C7.51021286 19.31723526 5.61227712 23.24903798 3 27 C2.01 27.33 1.02 27.66 0 28 C0.268125 27.505 0.53625 27.01 0.8125 26.5 C3.80634432 20.19716985 5.79786785 15.0668295 5 8 C3.18621008 4.65247442 3.18621008 4.65247442 1 2 C0.67 1.34 0.34 0.68 0 0 Z " fill="#E7FDFE" transform="translate(170,141)"/>
<path d="M0 0 C4.18755013 4.18755013 4.25450117 10.13597345 4.2734375 15.76953125 C4.26570312 16.54683594 4.25796875 17.32414062 4.25 18.125 C4.25773438 18.91003906 4.26546875 19.69507813 4.2734375 20.50390625 C4.25916291 24.73632261 4.09806138 28.2028044 2 32 C1.01 32.495 1.01 32.495 0 33 C0.16242188 32.02933594 0.32484375 31.05867188 0.4921875 30.05859375 C1.1098311 25.71871988 1.14716227 21.43954856 1.125 17.0625 C1.12886719 16.30259766 1.13273438 15.54269531 1.13671875 14.75976562 C1.12817323 9.75636172 0.70999018 4.95302674 0 0 Z " fill="#ECCA39" transform="translate(210,135)"/>
<path d="M0 0 C0.33 0 0.66 0 1 0 C1.12528076 0.57854736 1.25056152 1.15709473 1.37963867 1.75317383 C4.48101496 16.36431153 4.48101496 16.36431153 10.08203125 30.13671875 C11 32 11 32 11 34 C8 33 8 33 6.83203125 31.109375 C3.44798706 23.27810031 3.44798706 23.27810031 4 19 C3.34 19 2.68 19 2 19 C0.26044666 12.56986533 -0.24991456 6.65050424 0 0 Z " fill="#C2E7F9" transform="translate(68,169)"/>
<path d="M0 0 C0.33 0 0.66 0 1 0 C1 1.65 1 3.3 1 5 C0.01 5 -0.98 5 -2 5 C-2.2475 6.11375 -2.495 7.2275 -2.75 8.375 C-4.19858332 12.57589162 -4.4124337 12.20621685 -8 14 C-8.495 15.7325 -8.495 15.7325 -9 17.5 C-10 21 -10 21 -12.125 22.4375 C-12.74375 22.623125 -13.3625 22.80875 -14 23 C-14 23.99 -14 24.98 -14 26 C-14.66 26 -15.32 26 -16 26 C-14.64491883 22.29682955 -12.96433209 19.19489443 -10.77734375 15.91796875 C-10.15666016 14.98662109 -9.53597656 14.05527344 -8.89648438 13.09570312 C-8.25001953 12.13599609 -7.60355469 11.17628906 -6.9375 10.1875 C-6.28716797 9.20845703 -5.63683594 8.22941406 -4.96679688 7.22070312 C-1.38904621 1.87827627 -1.38904621 1.87827627 0 0 Z " fill="#FEF5BE" transform="translate(236,207)"/>
<path d="M0 0 C0.33 0.99 0.66 1.98 1 3 C0.26652344 3.66386719 -0.46695313 4.32773437 -1.22265625 5.01171875 C-2.15980469 5.89472656 -3.09695312 6.77773438 -4.0625 7.6875 C-5.47208984 8.99267578 -5.47208984 8.99267578 -6.91015625 10.32421875 C-9.32935482 12.80826595 -9.32935482 12.80826595 -8.80859375 15.83203125 C-8.54175781 16.54746094 -8.27492187 17.26289062 -8 18 C-6.02 18.33 -4.04 18.66 -2 19 C-3.32 20.32 -4.64 21.64 -6 23 C-8.31 21.02 -10.62 19.04 -13 17 C-11.93860134 12.75440536 -11.24630037 11.92835192 -8.1875 9.0625 C-5.20046667 6.19344644 -2.49181635 3.3224218 0 0 Z " fill="#EED651" transform="translate(242,53)"/>
<path d="M0 0 C12.87 0.495 12.87 0.495 26 1 C26 1.66 26 2.32 26 3 C23.2915983 3.02714434 20.58347279 3.04690846 17.875 3.0625 C16.73417969 3.07506836 16.73417969 3.07506836 15.5703125 3.08789062 C11.2610356 3.10646509 7.24483526 2.86117265 3 2 C2.34 3.98 1.68 5.96 1 8 C0.67 8 0.34 8 0 8 C0 5.36 0 2.72 0 0 Z " fill="#F8E313" transform="translate(161,71)"/>
<path d="M0 0 C9.55650317 -0.20166126 18.63914824 -0.26439611 28 2 C28 2.66 28 3.32 28 4 C18.43 3.34 8.86 2.68 -1 2 C-0.67 1.34 -0.34 0.68 0 0 Z " fill="#FDFAAC" transform="translate(161,68)"/>
<path d="M0 0 C7.47810971 9.34240037 6.33295676 20.6794703 6 32 C5.67 32 5.34 32 5 32 C4.67 25.4 4.34 18.8 4 12 C3.34 12 2.68 12 2 12 C0.00214565 7.8794254 -0.17835515 4.54805635 0 0 Z " fill="#FDF4AE" transform="translate(206,129)"/>
<path d="M0 0 C0.66 0.66 1.32 1.32 2 2 C1.61121812 5.01305957 0.73543126 6.39685311 -1 9 C-1.24580851 11.11730512 -1.40254933 13.2457029 -1.5 15.375 C-1.69934897 19.71084009 -2.16491693 23.04865177 -4 27 C-4.66 27 -5.32 27 -6 27 C-5.57331968 23.99810728 -5.13401091 20.99895388 -4.6875 18 C-4.56955078 17.16082031 -4.45160156 16.32164062 -4.33007812 15.45703125 C-3.49733746 9.94813146 -2.1286064 5.15158525 0 0 Z " fill="#FCECBB" transform="translate(210,250)"/>
<path d="M0 0 C0.33 0 0.66 0 1 0 C1.05434116 2.5419589 1.0938339 5.08273682 1.125 7.625 C1.14175781 8.33785156 1.15851563 9.05070313 1.17578125 9.78515625 C1.21642187 14.21498337 0.9474617 17.92135379 -1 22 C-3.07763672 23.16259766 -3.07763672 23.16259766 -5 24 C-4.35575667 20.74968273 -3.70932737 17.49980394 -3.0625 14.25 C-2.88009766 13.32960937 -2.69769531 12.40921875 -2.50976562 11.4609375 C-2.33251953 10.57148438 -2.15527344 9.68203125 -1.97265625 8.765625 C-1.81031494 7.94868164 -1.64797363 7.13173828 -1.48071289 6.29003906 C-1.03730797 4.17772917 -0.53920019 2.089663 0 0 Z " fill="#FEFCD7" transform="translate(210,148)"/>
<path d="M0 0 C3 0 3 0 4.578125 1.46875 C5.12984375 2.1390625 5.6815625 2.809375 6.25 3.5 C6.85457031 4.221875 7.45914063 4.94375 8.08203125 5.6875 C8.71496094 6.450625 9.34789063 7.21375 10 8 C11.30817856 9.5037703 12.62046688 11.00397861 13.9375 12.5 C14.95833333 13.66666667 15.97916667 14.83333333 17 16 C15.08864614 19.53600465 13.37357234 21.78972846 10 24 C9.34 23.67 8.68 23.34 8 23 C10.97 20.525 10.97 20.525 14 18 C12.70631978 15.17299814 11.32003513 13.05007292 9.1796875 10.80078125 C8.64472656 10.23166016 8.10976562 9.66253906 7.55859375 9.07617188 C7.00300781 8.49416016 6.44742188 7.91214844 5.875 7.3125 C0 1.12156751 0 1.12156751 0 0 Z " fill="#CFF5FC" transform="translate(74,52)"/>
<path d="M0 0 C2.31 0 4.62 0 7 0 C8.71802382 3.43604765 8.1196618 7.38438896 8.09765625 11.1640625 C8.0962413 12.07127045 8.09482635 12.97847839 8.09336853 13.91317749 C8.08776096 16.81715155 8.07520718 19.72104915 8.0625 22.625 C8.05748598 24.59114472 8.0529229 26.55729065 8.04882812 28.5234375 C8.03778906 33.3489879 8.02051935 38.17448097 8 43 C7.67 43 7.34 43 7 43 C6.98018066 41.82904785 6.96036133 40.6580957 6.93994141 39.45166016 C6.86399919 35.11663926 6.7752648 30.78195905 6.68261719 26.44726562 C6.64428023 24.56940424 6.60943573 22.69146824 6.578125 20.81347656 C6.53257637 18.11756679 6.47456625 15.42217288 6.4140625 12.7265625 C6.40251129 11.88380768 6.39096008 11.04105286 6.37905884 10.17276001 C6.45806819 5.60979043 6.45806819 5.60979043 4 2 C2.68252676 1.30251417 1.35085807 0.63040043 0 0 Z " fill="#B0F1FE" transform="translate(157,6)"/>
<path d="M0 0 C0.33 0.99 0.66 1.98 1 3 C-2.59193015 9.28831132 -7.14190066 14.75287798 -13 19 C-13.33 18.01 -13.66 17.02 -14 16 C-13.01 16 -12.02 16 -11 16 C-10.7834375 15.071875 -10.7834375 15.071875 -10.5625 14.125 C-10 12 -10 12 -9 10 C-8.01 10 -7.02 10 -6 10 C-6 9.34 -6 8.68 -6 8 C-5.34 8 -4.68 8 -4 8 C-3.8453125 6.576875 -3.8453125 6.576875 -3.6875 5.125 C-3 2 -3 2 0 0 Z " fill="#FEF8BD" transform="translate(207,170)"/>
<path d="M0 0 C0.99 0.33 1.98 0.66 3 1 C-0.27094033 6.45156722 -4.41853326 10.61869443 -9 15 C-9.66 14.01 -10.32 13.02 -11 12 C-9.75 10 -9.75 10 -8 8 C-6.68 8 -5.36 8 -4 8 C-4.33 7.01 -4.66 6.02 -5 5 C-3.68 4.67 -2.36 4.34 -1 4 C-0.67 2.68 -0.34 1.36 0 0 Z " fill="#3387C8" transform="translate(169,164)"/>
<path d="M0 0 C0.33 0.66 0.66 1.32 1 2 C-0.25848578 4.0087944 -1.53051046 6.00629298 -2.8125 8 C-3.87404297 9.670625 -3.87404297 9.670625 -4.95703125 11.375 C-5.63121094 12.24125 -6.30539063 13.1075 -7 14 C-7.99 14 -8.98 14 -10 14 C-10.309375 14.78375 -10.61875 15.5675 -10.9375 16.375 C-12 19 -12 19 -13 21 C-13.66 21 -14.32 21 -15 21 C-13.68058498 17.29649348 -12.07121349 14.50861956 -9.625 11.4375 C-8.74714844 10.32181641 -8.74714844 10.32181641 -7.8515625 9.18359375 C-6 7 -6 7 -3.8984375 4.91015625 C-1.82536789 2.9472414 -1.82536789 2.9472414 0 0 Z " fill="#EFC42F" transform="translate(237,203)"/>
<path d="M0 0 C0.66 0.33 1.32 0.66 2 1 C2.3125 3.6875 2.3125 3.6875 2 7 C0 9.375 0 9.375 -3 12 C-4.44549333 13.42946198 -5.88263934 14.86740104 -7.3125 16.3125 C-8.54166667 17.54166667 -9.77083333 18.77083333 -11 20 C-11.66 19.67 -12.32 19.34 -13 19 C-12.14535156 18.13117187 -11.29070312 17.26234375 -10.41015625 16.3671875 C-9.29362564 15.20374384 -8.17777574 14.03964663 -7.0625 12.875 C-6.49853516 12.30523437 -5.93457031 11.73546875 -5.35351562 11.1484375 C-1.94512014 7.55635603 -0.24294394 5.15668105 0 0 Z " fill="#FDFAB5" transform="translate(263,41)"/>
<path d="M0 0 C0.66 0.33 1.32 0.66 2 1 C1.13375 1.3403125 1.13375 1.3403125 0.25 1.6875 C-2.55338976 3.32281069 -4.00442154 5.47226728 -6 8 C-6.66 8 -7.32 8 -8 8 C-8 8.66 -8 9.32 -8 10 C-9.75 11.7265625 -9.75 11.7265625 -12 13.625 C-12.7425 14.25664063 -13.485 14.88828125 -14.25 15.5390625 C-14.8275 16.02117187 -15.405 16.50328125 -16 17 C-16.66 16.67 -17.32 16.34 -18 16 C-16.13576613 13.88539167 -14.25965175 11.78378522 -12.375 9.6875 C-11.85292969 9.09259766 -11.33085938 8.49769531 -10.79296875 7.88476562 C-7.53078547 4.28025447 -4.65888801 1.74207704 0 0 Z " fill="#27A6DD" transform="translate(117,78)"/>
<path d="M0 0 C3 1 3 1 4.53515625 3.546875 C5.03917969 4.60390625 5.54320313 5.6609375 6.0625 6.75 C6.56910156 7.79671875 7.07570313 8.8434375 7.59765625 9.921875 C9 13 9 13 9.99609375 15.828125 C10.32738281 16.54484375 10.65867187 17.2615625 11 18 C11.99 18.33 12.98 18.66 14 19 C14.33 20.98 14.66 22.96 15 25 C11.98701703 21.37363571 9.41081479 17.63758391 6.9375 13.625 C6.26589844 12.54476562 5.59429687 11.46453125 4.90234375 10.3515625 C2.97358067 6.95345424 1.46854988 3.61418817 0 0 Z " fill="#286BB0" transform="translate(75,194)"/>
<path d="M0 0 C3.72719913 2.05683748 6.49835783 4.30488002 9.4375 7.375 C12.81013457 10.83223243 16.22138571 13.99648608 20 17 C19.34 17.33 18.68 17.66 18 18 C17.34 17.67 16.68 17.34 16 17 C16 16.34 16 15.68 16 15 C15.13375 14.62875 15.13375 14.62875 14.25 14.25 C11.6953267 12.83073705 10.05930146 11.05930146 8 9 C7.29875 8.67 6.5975 8.34 5.875 8 C3.49445512 6.73037606 3.08764161 5.40834928 2 3 C1.34 2.67 0.68 2.34 0 2 C0 1.34 0 0.68 0 0 Z " fill="#F0DD43" transform="translate(211,86)"/>
<path d="M0 0 C0 5.28 0 10.56 0 16 C-0.33 16 -0.66 16 -1 16 C-1 11.05 -1 6.1 -1 1 C-7.31483984 1.52565835 -7.31483984 1.52565835 -10 3 C-12.88912732 2.91061582 -15.74393255 2.765952 -18.625 2.5625 C-19.42679688 2.51029297 -20.22859375 2.45808594 -21.0546875 2.40429688 C-23.03679103 2.27451629 -25.01844499 2.13790265 -27 2 C-27 1.67 -27 1.34 -27 1 C-17.98978127 0.41464936 -9.0343984 -0.14340315 0 0 Z " fill="#14ACE6" transform="translate(157,71)"/>
<path d="M0 0 C5.96260189 4.82082706 10.96679794 10.22494276 16 16 C15.01 16.33 14.02 16.66 13 17 C12.38511719 16.25943359 12.38511719 16.25943359 11.7578125 15.50390625 C11.21898438 14.86324219 10.68015625 14.22257812 10.125 13.5625 C9.59132813 12.92441406 9.05765625 12.28632812 8.5078125 11.62890625 C7.0777243 9.89194996 7.0777243 9.89194996 5 9 C5 8.34 5 7.68 5 7 C4.34 7 3.68 7 3 7 C1.375 5.75 1.375 5.75 0 4 C0 2.68 0 1.36 0 0 Z " fill="#C1F2FB" transform="translate(55,48)"/>
<path d="M0 0 C0 0.33 0 0.66 0 1 C-1.21623047 1.22042969 -1.21623047 1.22042969 -2.45703125 1.4453125 C-9.63729284 2.89975431 -15.46119557 4.93976353 -21.7578125 8.6953125 C-24 10 -24 10 -27 11 C-27.33 10.01 -27.66 9.02 -28 8 C-26.948125 7.58427734 -26.948125 7.58427734 -25.875 7.16015625 C-21.8689559 5.54358682 -17.90620794 3.82703071 -13.9375 2.12109375 C-9.18437914 0.30707023 -5.0713007 -0.11793723 0 0 Z " fill="#3B96CA" transform="translate(147,107)"/>
<path d="M0 0 C0.66 0.33 1.32 0.66 2 1 C0.67267046 2.67145202 -0.66226218 4.33686649 -2 6 C-2.43183594 6.55042969 -2.86367187 7.10085937 -3.30859375 7.66796875 C-4.49416974 9.14905923 -5.74370424 10.57840217 -7 12 C-7.66 12 -8.32 12 -9 12 C-9.103125 12.61875 -9.20625 13.2375 -9.3125 13.875 C-10 16 -10 16 -13 18 C-11.68058498 14.29649348 -10.07121349 11.50861956 -7.625 8.4375 C-7.03976563 7.69371094 -6.45453125 6.94992188 -5.8515625 6.18359375 C-4.00143857 4.00169654 -2.05118869 1.99245421 0 0 Z " fill="#CEEDFA" transform="translate(158,179)"/>
<path d="M0 0 C1 2 1 2 0.328125 4.06640625 C-0.02765625 4.89011719 -0.3834375 5.71382812 -0.75 6.5625 C-2.74051666 11.3107116 -4.43657624 16.09653458 -6 21 C-6.33 21 -6.66 21 -7 21 C-4.9754902 5.14133987 -4.9754902 5.14133987 0 0 Z " fill="#F4AB15" transform="translate(211,242)"/>
<path d="M0 0 C0.33 0.99 0.66 1.98 1 3 C1.66 3 2.32 3 3 3 C4.7637236 9.65556077 6.34034961 16.13963599 7 23 C4.59881473 20.59881473 4.24779139 18.94503958 3.375 15.6875 C3.11460937 14.74261719 2.85421875 13.79773438 2.5859375 12.82421875 C2.02520352 10.12148098 1.8898124 7.74968152 2 5 C1.34 5 0.68 5 0 5 C0 3.35 0 1.7 0 0 Z " fill="#FEFEE4" transform="translate(246,129)"/>
<path d="M0 0 C3.96 0 7.92 0 12 0 C9 2 9 2 2 3 C1.67 7.95 1.34 12.9 1 18 C0.67 18 0.34 18 0 18 C0 12.06 0 6.12 0 0 Z " fill="#E7FBFF" transform="translate(143,236)"/>
<path d="M0 0 C1.07980476 3.21750519 0.97733906 4.82122732 -0.43359375 7.890625 C-0.75263672 8.59960938 -1.07167969 9.30859375 -1.40039062 10.0390625 C-1.74263672 10.76867187 -2.08488281 11.49828125 -2.4375 12.25 C-2.77587891 12.99507812 -3.11425781 13.74015625 -3.46289062 14.5078125 C-4.29826304 16.34327865 -5.14777967 18.17229555 -6 20 C-6.98875764 16.90100795 -7.13666571 16.29285509 -5.6875 13.1875 C-5.130625 12.135625 -4.57375 11.08375 -4 10 C-3.22646823 7.68406453 -2.61500941 5.36542081 -2 3 C-1.34 3 -0.68 3 0 3 C0 2.01 0 1.02 0 0 Z " fill="#EDC840" transform="translate(245,183)"/>
<path d="M0 0 C0.66 0.33 1.32 0.66 2 1 C0.64763423 3.93879484 -0.89942659 6.29232911 -3 8.75 C-3.515625 9.36359375 -4.03125 9.9771875 -4.5625 10.609375 C-6 12 -6 12 -8 12 C-6.49087042 7.01987239 -3.44338151 3.75740058 0 0 Z " fill="#D5F4FC" transform="translate(120,118)"/>
<path d="M0 0 C-1.86967605 0.98929461 -3.74601378 1.96600469 -5.625 2.9375 C-7.19121094 3.75541016 -7.19121094 3.75541016 -8.7890625 4.58984375 C-11.92416918 5.96669717 -14.61454632 6.59842216 -18 7 C-15.54234547 4.18652343 -12.93721011 2.80685406 -9.5625 1.25 C-8.61503906 0.80140625 -7.66757813 0.3528125 -6.69140625 -0.109375 C-3.87551411 -1.04119417 -2.71771213 -1.05367562 0 0 Z " fill="#CAF5FD" transform="translate(141,110)"/>
<path d="M0 0 C0.33 0 0.66 0 1 0 C0.54441317 6.52208517 -0.03070444 12.74459057 -2 19 C-2.66 19.33 -3.32 19.66 -4 20 C-3.71657321 17.60293301 -3.42356312 15.20768917 -3.125 12.8125 C-3.04636719 12.13896484 -2.96773437 11.46542969 -2.88671875 10.77148438 C-2.39528587 6.89672516 -1.64019099 3.54915277 0 0 Z " fill="#E1A538" transform="translate(206,258)"/>
<path d="M0 0 C1.32 0 2.64 0 4 0 C4 0.66 4 1.32 4 2 C4.66 2 5.32 2 6 2 C8.1875 4.8125 8.1875 4.8125 10 8 C9.67 8.99 9.34 9.98 9 11 C7.49703315 9.35687553 5.99769719 7.71042916 4.5 6.0625 C3.6646875 5.14597656 2.829375 4.22945312 1.96875 3.28515625 C0 1 0 1 0 0 Z " fill="#CFF7FD" transform="translate(62,39)"/>
<path d="M0 0 C0.48210937 0.42152344 0.96421875 0.84304687 1.4609375 1.27734375 C2.09257812 1.82519531 2.72421875 2.37304688 3.375 2.9375 C4.00148437 3.48277344 4.62796875 4.02804688 5.2734375 4.58984375 C6.95632334 6.06958624 6.95632334 6.06958624 9 7 C9 7.66 9 8.32 9 9 C9.9590625 9.1546875 9.9590625 9.1546875 10.9375 9.3125 C11.9584375 9.6528125 11.9584375 9.6528125 13 10 C13.33 10.99 13.66 11.98 14 13 C12.68 12.67 11.36 12.34 10 12 C10 11.34 10 10.68 10 10 C9.443125 9.7525 8.88625 9.505 8.3125 9.25 C1.4685836 5.55058573 1.4685836 5.55058573 0.35546875 1.8671875 C0.23816406 1.25101562 0.12085938 0.63484375 0 0 Z " fill="#F9DE19" transform="translate(218,94)"/>
<path d="M0 0 C2.4136396 2.4136396 2.75532852 4.09835899 3.625 7.375 C4.01558594 8.80972656 4.01558594 8.80972656 4.4140625 10.2734375 C5 13 5 13 5 17 C4.34 17 3.68 17 3 17 C2.49453964 14.91798472 1.99583165 12.83432933 1.5 10.75 C1.2215625 9.58984375 0.943125 8.4296875 0.65625 7.234375 C0 4 0 4 0 0 Z " fill="#ECD144" transform="translate(243,127)"/>
<path d="M0 0 C1.1055189 0.93590504 2.20935453 1.87379858 3.3125 2.8125 C3.92738281 3.33457031 4.54226562 3.85664062 5.17578125 4.39453125 C6.85424679 5.87172469 8.43882034 7.40039131 10 9 C9.34 10.32 8.68 11.64 8 13 C7.67 13 7.34 13 7 13 C6.773125 12.0925 6.54625 11.185 6.3125 10.25 C4.80778653 6.52404284 3.13165752 5.38994916 0 3 C0 2.01 0 1.02 0 0 Z " fill="#2F84BC" transform="translate(79,59)"/>
<path d="M0 0 C2.31 0.33 4.62 0.66 7 1 C7 1.33 7 1.66 7 2 C5.35 2 3.7 2 2 2 C2.33 3.98 2.66 5.96 3 8 C1.68 7.67 0.36 7.34 -1 7 C-0.67 4.69 -0.34 2.38 0 0 Z " fill="#2A9CD0" transform="translate(55,40)"/>
<path d="M0 0 C0.33 0 0.66 0 1 0 C1.2358396 5.77807024 0.86783046 10.51324804 -1 16 C-2.65 16 -4.3 16 -6 16 C-5.04867187 15.20335937 -5.04867187 15.20335937 -4.078125 14.390625 C-1.53954807 11.47030718 -1.24589772 9.55188248 -0.75 5.75 C-0.60046875 4.67234375 -0.4509375 3.5946875 -0.296875 2.484375 C-0.19890625 1.66453125 -0.1009375 0.8446875 0 0 Z " fill="#EE9D11" transform="translate(203,263)"/>
<path d="M0 0 C3.83555225 1.5626324 6.13609725 4.06449968 9 7 C9.763125 7.556875 10.52625 8.11375 11.3125 8.6875 C12.1478125 9.3371875 12.1478125 9.3371875 13 10 C13 10.66 13 11.32 13 12 C9.23416446 11.45254373 7.77278714 10.00868233 5.375 7.125 C4.78460938 6.42632812 4.19421875 5.72765625 3.5859375 5.0078125 C2 3 2 3 0 0 Z " fill="#FEFEDF" transform="translate(218,89)"/>
<path d="M0 0 C-3.75 2 -3.75 2 -6 2 C-6 4.64 -6 7.28 -6 10 C-6.99 10 -7.98 10 -9 10 C-9.29296875 3.9453125 -9.29296875 3.9453125 -9 2 C-5.5647952 -0.29013653 -4.014669 -0.17842973 0 0 Z " fill="#D3F8FD" transform="translate(61,38)"/>
<path d="M0 0 C0.33 0 0.66 0 1 0 C1.08333357 4.8333472 0.95261487 9.23692563 0 14 C-0.66 14 -1.32 14 -2 14 C-2.21192221 8.80790596 -1.5912689 4.873261 0 0 Z " fill="#4296CE" transform="translate(143,147)"/>
<path d="M0 0 C0.66 0 1.32 0 2 0 C6 6.75 6 6.75 6 9 C5.01 9 4.02 9 3 9 C0.50022457 5.66696609 0 4.26696398 0 0 Z " fill="#1961B5" transform="translate(90,216)"/>
<path d="M0 0 C0.66 0 1.32 0 2 0 C1.51171875 6.0546875 1.51171875 6.0546875 1 8 C0.01 8.66 -0.98 9.32 -2 10 C-1.85950482 8.52031676 -1.71245174 7.04125484 -1.5625 5.5625 C-1.48128906 4.73878906 -1.40007812 3.91507813 -1.31640625 3.06640625 C-1 1 -1 1 0 0 Z " fill="#FEFAD0" transform="translate(248,179)"/>
<path d="M0 0 C1.60031344 3.20062687 0.03173691 5.72271806 -1 9 C-1.66 9 -2.32 9 -3 9 C-3.33 9.99 -3.66 10.98 -4 12 C-4.33 11.34 -4.66 10.68 -5 10 C-4.00390625 7.6171875 -4.00390625 7.6171875 -2.5625 4.875 C-1.85287109 3.50988281 -1.85287109 3.50988281 -1.12890625 2.1171875 C-0.75636719 1.41851562 -0.38382813 0.71984375 0 0 Z " fill="#FDEFBA" transform="translate(216,238)"/>
<path d="M0 0 C0.66 0 1.32 0 2 0 C1.71125 0.57621094 1.4225 1.15242187 1.125 1.74609375 C0.41244341 3.17368108 -0.29636559 4.60315029 -1 6.03515625 C-1.33 6.70417969 -1.66 7.37320313 -2 8.0625 C-2.495 9.06990234 -2.495 9.06990234 -3 10.09765625 C-4 12 -4 12 -6 15 C-5.67 12.36 -5.34 9.72 -5 7 C-4.34 7 -3.68 7 -3 7 C-2.690625 6.030625 -2.38125 5.06125 -2.0625 4.0625 C-1 1 -1 1 0 0 Z " fill="#397DBB" transform="translate(149,186)"/>
<path d="M0 0 C2 2 2 2 2.046875 4.34765625 C1.94890625 5.24355469 1.8509375 6.13945312 1.75 7.0625 C1.61851562 8.41021484 1.61851562 8.41021484 1.484375 9.78515625 C1.32453125 10.51605469 1.1646875 11.24695313 1 12 C0.01 12.495 0.01 12.495 -1 13 C-1.02686553 11.02090602 -1.04633375 9.04171029 -1.0625 7.0625 C-1.07410156 5.96035156 -1.08570313 4.85820312 -1.09765625 3.72265625 C-1 1 -1 1 0 0 Z " fill="#FEFEE8" transform="translate(251,167)"/>
<path d="M0 0 C0.66 0.33 1.32 0.66 2 1 C1.38125 1.680625 0.7625 2.36125 0.125 3.0625 C-2.3319068 6.45881234 -3.04945605 8.96018821 -4 13 C-4.33 13 -4.66 13 -5 13 C-5.61538462 5.73846154 -5.61538462 5.73846154 -2.5 2 C-1.675 1.34 -0.85 0.68 0 0 Z " fill="#158ADA" transform="translate(149,142)"/>
<path d="M0 0 C0.99 0.66 1.98 1.32 3 2 C3.25 4.5625 3.25 4.5625 3 7 C2 8 2 8 -0.5625 8.0625 C-1.366875 8.041875 -2.17125 8.02125 -3 8 C-3.66 6.68 -4.32 5.36 -5 4 C-2.525 5.485 -2.525 5.485 0 7 C0 4.69 0 2.38 0 0 Z " fill="#1480CF" transform="translate(83,65)"/>
<path d="M0 0 C0 3.77910478 -0.99703962 4.46106101 -3.5 7.1875 C-4.1496875 7.90292969 -4.799375 8.61835937 -5.46875 9.35546875 C-5.9740625 9.89816406 -6.479375 10.44085938 -7 11 C-7.66 10.67 -8.32 10.34 -9 10 C-6.68116787 5.49115974 -3.93548431 3.06093224 0 0 Z " fill="#F8DD1C" transform="translate(249,48)"/>
<path d="M0 0 C3.33511388 2.9901021 5.21521119 5.89498574 7 10 C7 10.66 7 11.32 7 12 C4 11 4 11 2.83203125 9.00390625 C2.49558594 8.19824219 2.15914063 7.39257812 1.8125 6.5625 C1.46832031 5.75941406 1.12414062 4.95632812 0.76953125 4.12890625 C0 2 0 2 0 0 Z " fill="#D4F1FB" transform="translate(72,191)"/>
<path d="M0 0 C0.99 0.33 1.98 0.66 3 1 C-0.96 4.465 -0.96 4.465 -5 8 C-5.66 7.67 -6.32 7.34 -7 7 C-4.69 4.69 -2.38 2.38 0 0 Z " fill="#FDFDED" transform="translate(260,52)"/>
<path d="M0 0 C1.09570312 0.10183594 2.19140625 0.20367187 3.3203125 0.30859375 C4.16335937 0.39238281 5.00640625 0.47617188 5.875 0.5625 C5.875 0.8925 5.875 1.2225 5.875 1.5625 C1.255 1.8925 -3.365 2.2225 -8.125 2.5625 C-8.125 1.9025 -8.125 1.2425 -8.125 0.5625 C-5.28943413 -0.85528293 -3.1341294 -0.30007622 0 0 Z " fill="#1F98DA" transform="translate(151.125,104.4375)"/>
<path d="M0 0 C3.63 0 7.26 0 11 0 C10.67 0.66 10.34 1.32 10 2 C6.76902047 2.86159454 4.77513726 3.30597523 1.625 2.0625 C1.08875 1.711875 0.5525 1.36125 0 1 C0 0.67 0 0.34 0 0 Z " fill="#D6F6FE" transform="translate(153,49)"/>
<path d="M0 0 C0.33 0 0.66 0 1 0 C0.26086957 8.86956522 0.26086957 8.86956522 -3 12 C-3.66 12 -4.32 12 -5 12 C-4.731875 11.505 -4.46375 11.01 -4.1875 10.5 C-2.56124507 7.0763054 -1.30484829 3.55867715 0 0 Z " fill="#CEF1FB" transform="translate(175,157)"/>
<path d="M0 0 C0 3 0 3 -1.375 4.6875 C-3 6 -3 6 -5 6 C-5.33 6.66 -5.66 7.32 -6 8 C-5.38722388 5.03824877 -4.74627478 3.61941217 -3 1 C-2.01 0.67 -1.02 0.34 0 0 Z " fill="#FBE30F" transform="translate(256,42)"/>
<path d="M0 0 C2.64 0 5.28 0 8 0 C8 0.33 8 0.66 8 1 C6.35 1.33 4.7 1.66 3 2 C2.34 3.98 1.68 5.96 1 8 C0.67 8 0.34 8 0 8 C0 5.36 0 2.72 0 0 Z " fill="#F4E71D" transform="translate(161,71)"/>
<path d="M0 0 C1.12894876 0.93274109 2.25300876 1.87140122 3.375 2.8125 C4.00148438 3.33457031 4.62796875 3.85664062 5.2734375 4.39453125 C7 6 7 6 9 9 C6.66471585 8.82701599 5.30822418 8.29774631 3.62109375 6.66796875 C0 2.42788462 0 2.42788462 0 0 Z " fill="#D4FAFE" transform="translate(62,56)"/>
<path d="M0 0 C0.33 1.32 0.66 2.64 1 4 C-0.65 5.32 -2.3 6.64 -4 8 C-3.50168276 4.31245243 -2.89932357 2.39509338 0 0 Z " fill="#FEFED5" transform="translate(244,47)"/>
<path d="M0 0 C-1.39332574 3.36720387 -2.9789286 4.9859524 -6 7 C-6.66 6.67 -7.32 6.34 -8 6 C-7.0479279 4.99403703 -6.08812654 3.99538437 -5.125 3 C-4.59132812 2.443125 -4.05765625 1.88625 -3.5078125 1.3125 C-2 0 -2 0 0 0 Z " fill="#E3FCFE" transform="translate(171,169)"/>
<path d="M0 0 C1.36741555 2.25221384 2.04066478 3.52557758 1.8125 6.1875 C1.4103125 7.0846875 1.4103125 7.0846875 1 8 C0.01 8.33 -0.98 8.66 -2 9 C-1.125 2.25 -1.125 2.25 0 0 Z " fill="#C5EBF8" transform="translate(109,134)"/>
<path d="M0 0 C0.33 0 0.66 0 1 0 C1.33 3.3 1.66 6.6 2 10 C1.01 9.34 0.02 8.68 -1 8 C-1.25 4.4375 -1.25 4.4375 -1 1 C-0.67 0.67 -0.34 0.34 0 0 Z " fill="#2B5EA9" transform="translate(7,133)"/>
<path d="M0 0 C2.31 0.33 4.62 0.66 7 1 C5.68 2.32 4.36 3.64 3 5 C1.5 3.625 1.5 3.625 0 2 C0 1.34 0 0.68 0 0 Z " fill="#2E3238" transform="translate(139,371)"/>
<path d="M0 0 C3.08089673 2.77280706 4.68775452 5.06326356 6 9 C5.01 8.67 4.02 8.34 3 8 C3 7.01 3 6.02 3 5 C2.34 5 1.68 5 1 5 C0.67 3.35 0.34 1.7 0 0 Z " fill="#D2EEFA" transform="translate(93,225)"/>
<path d="M0 0 C2.86724686 0.57344937 3.8614515 0.8614515 6 3 C6.125 5.625 6.125 5.625 6 8 C3.87961365 5.38485683 1.86908256 2.80362384 0 0 Z " fill="#CAEFF9" transform="translate(170,141)"/>
<path d="M0 0 C3.37503669 1.1858237 5.64722731 2.27573689 8 5 C7.67 5.66 7.34 6.32 7 7 C5.83040013 6.02433888 4.66438823 5.044375 3.5 4.0625 C2.8503125 3.51722656 2.200625 2.97195312 1.53125 2.41015625 C1.0259375 1.94480469 0.520625 1.47945313 0 1 C0 0.67 0 0.34 0 0 Z " fill="#FEFDDF" transform="translate(210,82)"/>
<path d="M0 0 C2.31 0 4.62 0 7 0 C7.33 1.98 7.66 3.96 8 6 C7.13375 5.071875 7.13375 5.071875 6.25 4.125 C4.19750179 2.18652947 2.56633418 1.09985751 0 0 Z " fill="#C3F3FB" transform="translate(157,6)"/>
</svg>
